<svg width="220" height="64" viewBox="0 0 220 64" fill="none" xmlns="http://www.w3.org/2000/svg">
<rect x="0.8" y="0.8" width="218.4" height="62.4" rx="31.2" stroke="#6B430E" stroke-width="1.6"/>
<path d="M48.463 31.1447C48.4988 28.3656 49.9912 25.7361 52.3588 24.2805C50.8652 22.1473 48.3634 20.7948 45.7606 20.7134C42.9845 20.422 40.2932 22.3746 38.8785 22.3746C37.4365 22.3746 35.2584 20.7423 32.9129 20.7906C29.8557 20.8894 27.0057 22.6275 25.5183 25.3003C22.321 30.8359 24.7059 38.9714 27.7686 43.446C29.301 45.6371 31.0919 48.0846 33.4352 47.9978C35.7283 47.9026 36.5847 46.5355 39.3527 46.5355C42.0949 46.5355 42.8984 47.9978 45.2893 47.9426C47.7499 47.9026 49.3002 45.7418 50.7788 43.5299C51.8798 41.9687 52.727 40.2432 53.2891 38.4174C50.3974 37.1944 48.4663 34.2843 48.463 31.1447Z" fill="#6B430E"/>
<path d="M43.947 17.7707C45.2886 16.1601 45.9495 14.09 45.7895 12C43.7398 12.2153 41.8465 13.1949 40.4867 14.7437C39.1571 16.2569 38.4651 18.2906 38.5959 20.3007C40.6464 20.3218 42.6621 19.3688 43.947 17.7707Z" fill="#6B430E"/>
<path d="M139.37 29.2016V32.8557H137.08V35.252H139.37V43.3943C139.37 46.1746 140.628 47.2867 143.792 47.2867C144.348 47.2867 144.878 47.2205 145.341 47.1411V44.7712C144.944 44.811 144.692 44.8374 144.255 44.8374C142.839 44.8374 142.217 44.1755 142.217 42.6661V35.252H145.341V32.8557H142.217V29.2016H139.37Z" fill="#6B430E"/>
<path d="M153.402 47.4853C157.612 47.4853 160.194 44.6653 160.194 39.9918C160.194 35.3447 157.599 32.5114 153.402 32.5114C149.192 32.5114 146.597 35.3447 146.597 39.9918C146.597 44.6653 149.178 47.4853 153.402 47.4853ZM153.402 44.9566C150.926 44.9566 149.536 43.1428 149.536 39.9918C149.536 36.8672 150.926 35.0402 153.402 35.0402C155.864 35.0402 157.268 36.8672 157.268 39.9918C157.268 43.1295 155.864 44.9566 153.402 44.9566Z" fill="#6B430E"/>
<path d="M162.403 47.2073H165.249V38.6943C165.249 36.6686 166.772 35.305 168.93 35.305C169.433 35.305 170.28 35.3976 170.518 35.4771V32.6703C170.214 32.5909 169.671 32.5512 169.247 32.5512C167.367 32.5512 165.765 33.5838 165.355 35.0005H165.143V32.7895H162.403V47.2073Z" fill="#6B430E"/>
<path d="M177.586 34.9343C179.691 34.9343 181.068 36.4039 181.134 38.6678H173.853C174.012 36.4171 175.481 34.9343 177.586 34.9343ZM181.121 43.3149C180.592 44.4402 179.413 45.0625 177.692 45.0625C175.415 45.0625 173.945 43.4605 173.853 40.9318V40.7729H184.034V39.7799C184.034 35.252 181.611 32.5114 177.599 32.5114C173.535 32.5114 170.953 35.4374 170.953 40.0447C170.953 44.6521 173.482 47.4853 177.613 47.4853C180.909 47.4853 183.213 45.8966 183.862 43.3149H181.121Z" fill="#6B430E"/>
<path d="M120.703 41.883C120.923 45.4234 123.873 47.6876 128.264 47.6876C132.957 47.6876 135.894 45.3136 135.894 41.5262C135.894 38.5485 134.22 36.9018 130.158 35.955L127.976 35.4198C125.396 34.816 124.353 34.0064 124.353 32.593C124.353 30.8091 125.973 29.6427 128.401 29.6427C130.707 29.6427 132.299 30.7816 132.587 32.6067H135.578C135.4 29.2722 132.463 26.9256 128.443 26.9256C124.12 26.9256 121.238 29.2722 121.238 32.7988C121.238 35.708 122.871 37.437 126.453 38.274L129.005 38.8915C131.626 39.509 132.779 40.4147 132.779 41.9242C132.779 43.6807 130.968 44.9568 128.497 44.9568C125.849 44.9568 124.01 43.763 123.75 41.883H120.703Z" fill="#6B430E"/>
<path d="M91.2164 32.5512C89.2569 32.5512 87.5623 33.5309 86.6885 35.1726H86.4766V32.7895H83.7361V52H86.5826V45.0228H86.8076C87.5623 46.5453 89.1907 47.4456 91.2429 47.4456C94.8837 47.4456 97.2007 44.5726 97.2007 39.9918C97.2007 35.4109 94.8837 32.5512 91.2164 32.5512ZM90.4088 44.8904C88.0257 44.8904 86.5296 43.0104 86.5296 40.005C86.5296 36.9864 88.0257 35.1064 90.422 35.1064C92.8316 35.1064 94.2747 36.9467 94.2747 39.9918C94.2747 43.0501 92.8316 44.8904 90.4088 44.8904Z" fill="#6B430E"/>
<path d="M107.161 32.5512C105.202 32.5512 103.507 33.5309 102.633 35.1726H102.421V32.7895H99.6807V52H102.527V45.0228H102.752C103.507 46.5453 105.135 47.4456 107.187 47.4456C110.828 47.4456 113.145 44.5726 113.145 39.9918C113.145 35.4109 110.828 32.5512 107.161 32.5512ZM106.353 44.8904C103.97 44.8904 102.474 43.0104 102.474 40.005C102.474 36.9864 103.97 35.1064 106.367 35.1064C108.776 35.1064 110.219 36.9467 110.219 39.9918C110.219 43.0501 108.776 44.8904 106.353 44.8904Z" fill="#6B430E"/>
<path d="M78.6289 47.2073H81.8949L74.7455 27.4059H71.4384L64.2891 47.2073H67.4452L69.2703 41.9516H76.8176L78.6289 47.2073ZM72.9342 31.0012H73.1674L76.0354 39.3718H70.0525L72.9342 31.0012Z" fill="#6B430E"/>
<path d="M66.2011 12.47V22.0223H69.65C72.4965 22.0223 74.1448 20.2681 74.1448 17.2164C74.1448 14.211 72.4833 12.47 69.65 12.47H66.2011ZM67.6839 13.8204H69.4845C71.4638 13.8204 72.6355 15.0782 72.6355 17.2362C72.6355 19.4274 71.4837 20.6719 69.4845 20.6719H67.6839V13.8204Z" fill="#6B430E"/>
<path d="M79.1931 22.1613C81.2981 22.1613 82.589 20.7513 82.589 18.4145C82.589 16.091 81.2915 14.6744 79.1931 14.6744C77.088 14.6744 75.7905 16.091 75.7905 18.4145C75.7905 20.7513 77.0814 22.1613 79.1931 22.1613ZM79.1931 20.897C77.9552 20.897 77.2601 19.9901 77.2601 18.4145C77.2601 16.8523 77.9552 15.9388 79.1931 15.9388C80.4243 15.9388 81.126 16.8523 81.126 18.4145C81.126 19.9834 80.4243 20.897 79.1931 20.897Z" fill="#6B430E"/>
<path d="M93.5818 14.8134H92.1585L90.8743 20.3144H90.7618L89.2789 14.8134H87.9153L86.4324 20.3144H86.3265L85.0357 14.8134H83.5925L85.5785 22.0223H87.0414L88.5243 16.7133H88.6368L90.1263 22.0223H91.6025L93.5818 14.8134Z" fill="#6B430E"/>
<path d="M95.2208 22.0223H96.6441V17.8055C96.6441 16.6802 97.3127 15.9785 98.3652 15.9785C99.4178 15.9785 99.9209 16.5544 99.9209 17.7129V22.0223H101.344V17.3554C101.344 15.6409 100.457 14.6744 98.8485 14.6744C97.7628 14.6744 97.0479 15.1576 96.697 15.9586H96.5911V14.8134H95.2208V22.0223Z" fill="#6B430E"/>
<path d="M103.586 22.0223H105.009V12H103.586V22.0223Z" fill="#6B430E"/>
<path d="M110.362 22.1613C112.467 22.1613 113.757 20.7513 113.757 18.4145C113.757 16.091 112.46 14.6744 110.362 14.6744C108.256 14.6744 106.959 16.091 106.959 18.4145C106.959 20.7513 108.25 22.1613 110.362 22.1613ZM110.362 20.897C109.124 20.897 108.429 19.9901 108.429 18.4145C108.429 16.8523 109.124 15.9388 110.362 15.9388C111.593 15.9388 112.295 16.8523 112.295 18.4145C112.295 19.9834 111.593 20.897 110.362 20.897Z" fill="#6B430E"/>
<path d="M117.998 20.9433C117.224 20.9433 116.661 20.566 116.661 19.9172C116.661 19.2817 117.111 18.9441 118.104 18.8779L119.865 18.7654V19.3678C119.865 20.2615 119.07 20.9433 117.998 20.9433ZM117.634 22.1415C118.581 22.1415 119.368 21.7311 119.799 21.0095H119.911V22.0223H121.282V17.0972C121.282 15.5747 120.262 14.6744 118.455 14.6744C116.82 14.6744 115.655 15.4688 115.509 16.7067H116.886C117.045 16.1969 117.594 15.9057 118.389 15.9057C119.362 15.9057 119.865 16.3359 119.865 17.0972V17.7195L117.912 17.832C116.198 17.9379 115.231 18.686 115.231 19.9834C115.231 21.3008 116.244 22.1415 117.634 22.1415Z" fill="#6B430E"/>
<path d="M126.111 22.1415C127.104 22.1415 127.945 21.6715 128.375 20.8837H128.488V22.0223H129.851V12H128.428V15.9586H128.322C127.932 15.1642 127.098 14.6942 126.111 14.6942C124.291 14.6942 123.119 16.1374 123.119 18.4145C123.119 20.6984 124.278 22.1415 126.111 22.1415ZM126.515 15.9719C127.707 15.9719 128.455 16.9185 128.455 18.4212C128.455 19.9305 127.713 20.8639 126.515 20.8639C125.31 20.8639 124.589 19.9437 124.589 18.4145C124.589 16.8986 125.317 15.9719 126.515 15.9719Z" fill="#6B430E"/>
<path d="M139.081 22.1613C141.186 22.1613 142.477 20.7513 142.477 18.4145C142.477 16.091 141.179 14.6744 139.081 14.6744C136.976 14.6744 135.678 16.091 135.678 18.4145C135.678 20.7513 136.969 22.1613 139.081 22.1613ZM139.081 20.897C137.843 20.897 137.148 19.9901 137.148 18.4145C137.148 16.8523 137.843 15.9388 139.081 15.9388C140.312 15.9388 141.014 16.8523 141.014 18.4145C141.014 19.9834 140.312 20.897 139.081 20.897Z" fill="#6B430E"/>
<path d="M144.361 22.0223H145.784V17.8055C145.784 16.6802 146.452 15.9785 147.505 15.9785C148.558 15.9785 149.061 16.5544 149.061 17.7129V22.0223H150.484V17.3554C150.484 15.6409 149.597 14.6744 147.988 14.6744C146.903 14.6744 146.188 15.1576 145.837 15.9586H145.731V14.8134H144.361V22.0223Z" fill="#6B430E"/>
<path d="M157.039 13.0194V14.8465H155.894V16.0447H157.039V20.1158C157.039 21.506 157.668 22.062 159.25 22.062C159.528 22.062 159.793 22.0289 160.024 21.9892V20.8043C159.826 20.8241 159.7 20.8374 159.482 20.8374C158.773 20.8374 158.462 20.5064 158.462 19.7517V16.0447H160.024V14.8465H158.462V13.0194H157.039Z" fill="#6B430E"/>
<path d="M161.935 22.0223H163.358V17.8122C163.358 16.7199 164.007 15.9851 165.172 15.9851C166.178 15.9851 166.714 16.5676 166.714 17.7195V22.0223H168.138V17.3686C168.138 15.6541 167.191 14.681 165.655 14.681C164.569 14.681 163.808 15.1642 163.457 15.9719H163.345V12H161.935V22.0223Z" fill="#6B430E"/>
<path d="M173.272 15.8858C174.324 15.8858 175.013 16.6206 175.046 17.7526H171.405C171.484 16.6272 172.219 15.8858 173.272 15.8858ZM175.039 20.0761C174.774 20.6388 174.185 20.9499 173.325 20.9499C172.186 20.9499 171.451 20.1489 171.405 18.8846V18.8051H176.496V18.3086C176.496 16.0447 175.284 14.6744 173.278 14.6744C171.246 14.6744 169.955 16.1374 169.955 18.441C169.955 20.7447 171.22 22.1613 173.285 22.1613C174.933 22.1613 176.085 21.367 176.41 20.0761H175.039Z" fill="#6B430E"/>
</svg>
