<svg width="113" height="60" viewBox="0 0 113 60" fill="none" xmlns="http://www.w3.org/2000/svg">
<path d="M74.553 10.9677C71.0158 10.9677 68.12 14.321 68.12 18.4431C68.12 22.5651 71.0064 25.9184 74.553 25.9184C78.0997 25.9184 80.9884 22.5651 80.9884 18.4431C80.9884 14.321 78.1021 10.9677 74.553 10.9677Z" fill="#EEAE0C"/>
<path d="M106.69 0H6.02744C4.42922 0.00249613 2.89721 0.638656 1.76732 1.76899C0.637429 2.89932 0.00187097 4.43158 0 6.0298V33.0637C0.00187097 34.6619 0.637429 36.1942 1.76732 37.3245C2.89721 38.4548 4.42922 39.091 6.02744 39.0935H79.4533L78.6279 34.9997C78.3823 33.7793 78.5195 32.5128 79.0208 31.3732C79.5221 30.2337 80.363 29.2768 81.4287 28.6332C82.4944 27.9897 83.7328 27.6909 84.9747 27.7778C86.2166 27.8646 87.4014 28.3329 88.3671 29.1185L100.63 39.0935H106.697C108.294 39.0897 109.825 38.453 110.954 37.3228C112.083 36.1926 112.718 34.6611 112.72 33.0637V6.0298C112.718 4.43118 112.082 2.89856 110.952 1.76816C109.821 0.637757 108.289 0.0018723 106.69 0ZM18.7686 17.0282C19.1438 17.0282 19.5037 17.1773 19.769 17.4426C20.0344 17.708 20.1834 18.0679 20.1834 18.4431C20.1834 18.8184 20.0344 19.1783 19.769 19.4436C19.5037 19.709 19.1438 19.858 18.7686 19.858H11.7908V27.3334C11.7908 27.7086 11.6417 28.0685 11.3764 28.3339C11.111 28.5992 10.7511 28.7483 10.3759 28.7483C10.0006 28.7483 9.64074 28.5992 9.3754 28.3339C9.11006 28.0685 8.96099 27.7086 8.96099 27.3334V10.4561C8.96161 9.84146 9.20604 9.25222 9.64062 8.81763C10.0752 8.38304 10.6645 8.13862 11.2791 8.13799H18.7686C19.1438 8.13799 19.5037 8.28706 19.769 8.55241C20.0344 8.81775 20.1834 9.17763 20.1834 9.55289C20.1834 9.92814 20.0344 10.288 19.769 10.5534C19.5037 10.8187 19.1438 10.9678 18.7686 10.9678H11.7908V17.0282H18.7686ZM30.3848 28.7483C25.2747 28.7483 21.1196 24.1263 21.1196 18.4431C21.1196 12.76 25.2747 8.13799 30.3848 8.13799C35.4949 8.13799 39.65 12.76 39.65 18.4431C39.65 24.1263 35.4926 28.7483 30.3848 28.7483ZM49.8962 28.7483H44.4724C43.7427 28.7451 43.044 28.4531 42.5291 27.936C42.0142 27.4189 41.7252 26.7189 41.7252 25.9892V9.55289C41.7252 9.17763 41.8743 8.81775 42.1396 8.55241C42.4049 8.28706 42.7648 8.13799 43.1401 8.13799C43.5153 8.13799 43.8752 8.28706 44.1406 8.55241C44.4059 8.81775 44.555 9.17763 44.555 9.55289V25.9185H49.8962C50.2714 25.9185 50.6313 26.0675 50.8967 26.3329C51.162 26.5982 51.3111 26.9581 51.3111 27.3334C51.3111 27.7086 51.162 28.0685 50.8967 28.3339C50.6313 28.5992 50.2714 28.7483 49.8962 28.7483ZM63.5876 28.7483H58.1639C57.4342 28.7451 56.7354 28.4531 56.2206 27.936C55.7057 27.4189 55.4166 26.7189 55.4166 25.9892V9.55289C55.4166 9.17763 55.5657 8.81775 55.831 8.55241C56.0964 8.28706 56.4563 8.13799 56.8315 8.13799C57.2068 8.13799 57.5667 8.28706 57.832 8.55241C58.0973 8.81775 58.2464 9.17763 58.2464 9.55289V25.9185H63.5876C63.9629 25.9185 64.3228 26.0675 64.5881 26.3329C64.8535 26.5982 65.0025 26.9581 65.0025 27.3334C65.0025 27.7086 64.8535 28.0685 64.5881 28.3339C64.3228 28.5992 63.9629 28.7483 63.5876 28.7483ZM74.5531 28.7483C69.4453 28.7483 65.2902 24.1263 65.2902 18.4431C65.2902 12.76 69.4453 8.13799 74.5531 8.13799C79.6608 8.13799 83.8182 12.76 83.8182 18.4431C83.8182 24.1263 79.6632 28.7483 74.5531 28.7483ZM103.742 9.73918L101.424 27.265C101.379 27.6354 101.212 27.9802 100.949 28.2456C100.687 28.511 100.344 28.6819 99.974 28.7318C99.8912 28.7438 99.8077 28.7501 99.724 28.7506C99.3935 28.7512 99.07 28.6548 98.7938 28.4733C98.5175 28.2918 98.3006 28.0332 98.17 27.7295L94.7624 19.9689L91.3738 27.7225C91.2243 28.064 90.9672 28.3473 90.6417 28.5289C90.3161 28.7106 89.9401 28.7808 89.5709 28.7286C89.2018 28.6765 88.8598 28.505 88.5973 28.2403C88.3348 27.9756 88.1662 27.6322 88.1172 27.2626L85.8015 9.73918C85.7708 9.55226 85.7781 9.36111 85.8227 9.17704C85.8673 8.99297 85.9485 8.81973 86.0613 8.66761C86.1742 8.51548 86.3164 8.38755 86.4796 8.29142C86.6428 8.19528 86.8236 8.13289 87.0114 8.10794C87.1991 8.08299 87.39 8.09599 87.5726 8.14617C87.7552 8.19635 87.9259 8.28269 88.0746 8.40007C88.2232 8.51745 88.3468 8.66348 88.438 8.82951C88.5291 8.99553 88.586 9.17817 88.6053 9.36659L90.3951 22.8953L92.9702 16.9999C93.1209 16.6506 93.3704 16.353 93.6879 16.1435C94.0055 15.934 94.3773 15.8219 94.7577 15.8209C95.1381 15.8219 95.51 15.934 95.8275 16.1435C96.1451 16.353 96.3945 16.6506 96.5452 16.9999L99.1392 22.9165L100.931 9.36895C100.951 9.18053 101.008 8.99789 101.099 8.83187C101.19 8.66584 101.313 8.51981 101.462 8.40243C101.611 8.28505 101.781 8.19871 101.964 8.14853C102.147 8.09835 102.338 8.08535 102.525 8.1103C102.713 8.13525 102.894 8.19764 103.057 8.29378C103.22 8.38991 103.363 8.51784 103.475 8.66996C103.588 8.82209 103.669 8.99533 103.714 9.17939C103.759 9.36346 103.766 9.55462 103.735 9.74154L103.742 9.73918Z" fill="#EEAE0C"/>
<path d="M30.3848 10.9677C26.8476 10.9677 23.9494 14.321 23.9494 18.4431C23.9494 22.5651 26.8358 25.9184 30.3848 25.9184C33.9338 25.9184 36.8202 22.5651 36.8202 18.4431C36.8202 14.321 33.9315 10.9677 30.3848 10.9677Z" fill="#EEAE0C"/>
<path d="M105.525 46.7409L86.582 31.3233C86.0228 30.8519 85.316 30.5915 84.5846 30.5876C83.9882 30.5905 83.4035 30.7534 82.8915 31.0592C82.3181 31.3947 81.8655 31.9028 81.5982 32.511C81.331 33.1192 81.2628 33.7963 81.4035 34.4455L86.2283 58.3879C86.3099 58.795 86.5158 59.1667 86.8176 59.4518C87.1194 59.737 87.5022 59.9215 87.9133 59.98C88.3243 60.0384 88.7434 59.968 89.1127 59.7783C89.482 59.5886 89.7834 59.289 89.9754 58.9208L91.7982 55.4284C92.6045 53.8743 93.8233 52.5725 95.3208 51.6656C96.8184 50.7587 98.5368 50.282 100.288 50.2876H100.323L104.261 50.3018C104.674 50.2992 105.076 50.1695 105.413 49.9303C105.749 49.691 106.004 49.3539 106.142 48.9647C106.28 48.5756 106.295 48.1533 106.185 47.7554C106.074 47.3575 105.844 47.0033 105.525 46.7409Z" fill="#EEAE0C"/>
</svg>
