<svg width="80" height="80" viewBox="0 0 80 80" fill="none" xmlns="http://www.w3.org/2000/svg">
<g clip-path="url(#clip0_608_407)">
<path d="M55.0217 41.5407C58.5079 41.5407 58.5079 38.7518 61.9942 38.7518C65.48 38.7518 65.48 41.5407 68.9658 41.5407C70.612 41.5407 71.4814 40.9191 72.3075 40.263C73.7473 39.1196 75.8972 40.111 75.9345 41.9493C75.9355 41.9938 75.9361 42.0383 75.9366 42.0829C76.0206 49.7807 69.6912 56.1823 61.9929 56.1821C54.2918 56.182 48.049 49.939 48.049 42.2379C48.049 42.1547 48.0498 42.0718 48.0512 41.989C48.0837 40.1324 50.2256 39.1086 51.6798 40.2633C52.5061 40.9193 53.3754 41.5407 55.0217 41.5407Z" fill="#49B240"/>
<path d="M31.9344 4.84095C20.0425 4.77704 10.3125 14.6467 10.3125 26.5388C10.3125 42.9348 23.6041 56.2264 40.0001 56.2264C56.396 56.2264 69.6876 42.9348 69.6876 26.5388V26.4877C69.6876 19.8491 64.2557 14.3314 57.6176 14.3986C57.5543 14.3992 57.491 14.4003 57.4279 14.4021C53.2679 14.5091 49.2116 13.0375 46.1023 10.2717C42.331 6.91736 37.3716 4.87016 31.9344 4.84095Z" fill="#E86E35"/>
<path d="M32.1874 26.5388C32.1874 18.6557 36.4638 11.6625 42.8104 7.86126C39.6248 5.9622 35.9074 4.86235 31.9343 4.84095C20.0424 4.77704 10.3124 14.6467 10.3124 26.5388C10.3124 42.9348 23.604 56.2264 39.9999 56.2264C43.8626 56.2264 47.5526 55.4881 50.9375 54.146C39.9545 49.7909 32.1874 39.0721 32.1874 26.5388Z" fill="#D96330"/>
<path d="M20.3688 14.1964C19.675 13.4221 19.1597 12.5164 18.8486 11.55C17.4875 10.0077 15.5061 9.17627 14.4714 9.17627C11.5483 9.17627 9.17877 11.546 9.17877 14.4691C9.17877 15.5038 10.0102 17.5114 11.5525 18.8461C12.5189 19.1572 13.4244 19.6724 14.1989 20.3663L23.1994 28.4294L28.4319 23.1969L20.3688 14.1964Z" fill="#F5F5FC"/>
<path d="M48.1395 25.6716C46.5029 24.0233 44.5952 22.8099 42.5596 22.0297C37.7185 22.7594 35.4913 24.0233 33.8548 25.6716C27.6569 31.9136 27.7407 42.0962 34.0357 48.2399C35.6312 49.7971 38.6309 50.9085 42.5596 51.7021C44.5206 50.9504 46.3629 49.7971 47.9585 48.2399C54.2535 42.096 54.3373 31.9135 48.1395 25.6716Z" fill="#FF915E"/>
<path d="M37.1607 48.2399C30.8655 42.096 30.7819 31.9135 36.9798 25.6716C38.6163 24.0233 40.524 22.8099 42.5596 22.0297C39.9032 21.0116 37.0285 20.732 34.2524 21.192C33.2704 21.3549 32.2701 21.0374 31.5662 20.3335C30.0149 18.7822 26.2423 20.0397 23.1396 23.1424C20.0371 26.2449 18.7794 30.0175 20.3307 31.5689C21.033 32.2713 21.3529 33.2693 21.1902 34.2491C20.3783 39.1368 21.8572 44.3308 25.6279 48.1015C30.2055 52.6791 36.8812 53.8787 42.5595 51.7023C40.5985 50.9504 38.7562 49.7971 37.1607 48.2399Z" fill="#F77F43"/>
<path d="M42.5371 38.1268C44.6945 38.1268 46.4434 36.3779 46.4434 34.2205C46.4434 32.0632 44.6945 30.3143 42.5371 30.3143C40.3798 30.3143 38.6309 32.0632 38.6309 34.2205C38.6309 36.3779 40.3798 38.1268 42.5371 38.1268Z" fill="#E86E35"/>
<path d="M31.113 33.6585C32.8389 33.6585 34.238 32.2594 34.238 30.5335C34.238 28.8076 32.8389 27.4085 31.113 27.4085C29.3872 27.4085 27.988 28.8076 27.988 30.5335C27.988 32.2594 29.3872 33.6585 31.113 33.6585Z" fill="#E86E35"/>
<path d="M10.7413 16.0316C10.7413 13.1085 13.1109 10.7389 16.0339 10.7389C17.0686 10.7389 18.0331 11.0369 18.8486 11.5502C18.476 10.3924 18.3974 9.1469 18.6699 7.93142C19.0867 6.07189 18.5372 4.03923 17.0213 2.63563C14.9228 0.692659 11.6355 0.678753 9.52172 2.60501C8.69031 3.36266 8.14453 4.30782 7.88406 5.31173C7.55734 6.57126 6.57359 7.55502 5.31406 7.88174C4.31015 8.14221 3.36499 8.68799 2.60733 9.51955C0.681234 11.6332 0.69514 14.9205 2.63796 17.0189C4.04155 18.5349 6.07406 19.0844 7.93359 18.6675C9.14922 18.395 10.3945 18.4736 11.5523 18.8463C11.0392 18.0307 10.7413 17.0661 10.7413 16.0316Z" fill="#EBEBF5"/>
<path d="M11.035 41.5407C14.5212 41.5407 14.5212 38.7518 18.0075 38.7518C21.4933 38.7518 21.4933 41.5407 24.9791 41.5407C26.6253 41.5407 27.4947 40.9191 28.3208 40.263C29.7606 39.1196 31.9105 40.111 31.9478 41.9493C31.9488 41.9938 31.9494 42.0383 31.9499 42.0829C32.0339 49.7807 25.7045 56.1823 18.0063 56.1821C10.3051 56.182 4.06232 49.939 4.06232 42.2379C4.06232 42.1547 4.0631 42.0718 4.0645 41.989C4.097 40.1324 6.23888 39.1086 7.69311 40.2633C8.51936 40.9193 9.38873 41.5407 11.035 41.5407Z" fill="#6DC267"/>
<path d="M12.9013 42.2379C12.9013 42.1547 12.902 42.0718 12.9035 41.989C12.9091 41.6682 12.9789 41.373 13.0961 41.1088C12.5531 41.3679 11.9019 41.5405 11.035 41.5405C9.38876 41.5405 8.51938 40.9191 7.69329 40.2632C6.23907 39.1086 4.09719 40.1322 4.06469 41.9888C4.06328 42.0716 4.0625 42.1546 4.0625 42.2377C4.0625 49.9388 10.3055 56.1818 18.0064 56.182C19.541 56.182 21.0194 55.924 22.4052 55.4557C16.8819 53.6009 12.9013 48.386 12.9013 42.2379Z" fill="#49B240"/>
<path d="M65.3109 47.5755C65.3109 45.2624 64.0537 43.2443 62.1858 42.1638C58.812 42.5915 55.9359 45.2626 55.9359 47.5755C55.9359 49.8885 59.1217 52.4654 62.1858 52.9873C64.0537 51.907 65.3109 49.8887 65.3109 47.5755Z" fill="#FFF04A"/>
<path d="M59.0609 47.5756C59.0609 45.2626 60.3182 43.2446 62.1859 42.1638C61.2663 41.6317 60.1996 41.3256 59.0609 41.3256C55.6091 41.3256 52.8109 44.1238 52.8109 47.5756C52.8109 51.0273 55.6091 53.8256 59.0609 53.8256C60.1996 53.8256 61.2663 53.5195 62.1859 52.9873C60.3184 51.9067 59.0609 49.8885 59.0609 47.5756Z" fill="#FFDA45"/>
<path d="M54.8809 47.5755C54.8809 45.2624 53.6237 43.2443 51.7557 42.1638C48.382 42.5915 45.5059 45.2626 45.5059 47.5755C45.5059 49.8885 48.6916 52.4654 51.7557 52.9873C53.6237 51.907 54.8809 49.8887 54.8809 47.5755Z" fill="#FFF04A"/>
<path d="M48.6309 47.5756C48.6309 45.2626 49.8882 43.2446 51.7559 42.1638C50.8363 41.6317 49.7696 41.3256 48.6309 41.3256C45.1791 41.3256 42.3809 44.1238 42.3809 47.5756C42.3809 51.0273 45.1791 53.8256 48.6309 53.8256C49.7696 53.8256 50.8363 53.5195 51.7559 52.9873C49.8882 51.9067 48.6309 49.8885 48.6309 47.5756Z" fill="#FFDA45"/>
<path d="M74.0431 50.7006H23.1443C20.59 50.7006 15.3061 52.7031 15.2361 55.2564C15.1888 56.9821 16.0746 58.5048 17.4257 59.3564C19.2658 60.5164 20.6536 62.2709 21.3414 64.3345L24.035 72.4151C25.3111 76.2433 32.0187 78.8255 36.054 78.8255H61.1336C65.1689 78.8255 68.7514 76.2433 70.0275 72.4151L72.7211 64.3345C73.4089 62.2709 74.7967 60.5162 76.6369 59.3564C77.988 58.5046 78.8737 56.9821 78.8264 55.2564C78.7564 52.7032 76.5973 50.7006 74.0431 50.7006Z" fill="#F5F5FC"/>
<path d="M27.16 72.4153L24.4664 64.3347C23.7785 62.2709 22.3908 60.5164 20.5506 59.3565C19.1995 58.5048 18.3138 56.9823 18.3611 55.2565C18.4311 52.7032 20.5902 50.7007 23.1442 50.7007H5.9567C3.40247 50.7007 1.24356 52.7032 1.17356 55.2565C1.12622 56.9823 2.012 58.505 3.3631 59.3565C5.20326 60.5165 6.59107 62.2711 7.27889 64.3347L9.97249 72.4153C11.2486 76.2435 14.8311 78.8256 18.8664 78.8256H36.0539C32.0186 78.8256 28.4361 76.2436 27.16 72.4153Z" fill="#EBEBF5"/>
<path d="M75.1492 49.6334C76.4637 47.3282 77.1378 44.7491 77.1086 42.0707L77.1064 41.9254C77.0801 40.6326 76.3334 39.486 75.1576 38.933C73.9725 38.3755 72.6011 38.5335 71.5789 39.3452C70.8004 39.9635 70.1979 40.3687 68.9659 40.3687C68.4492 40.3687 68.0445 40.2959 67.6945 40.1702C69.7748 35.9574 70.8595 31.3229 70.8595 26.5388V26.4877C70.8595 22.916 69.4522 19.5558 66.8965 17.026C64.386 14.5406 61.0864 13.1896 57.6062 13.2269C57.5367 13.2275 57.4673 13.2288 57.3978 13.2305C53.5065 13.3313 49.7735 11.9689 46.8812 9.3961C42.7624 5.7325 37.4566 3.69875 31.9408 3.66906C27.6579 3.64625 23.5633 4.8186 19.9624 7.07876C20.0667 5.10188 19.2947 3.14312 17.8175 1.77562C15.2791 -0.57454 11.2886 -0.590634 8.73235 1.7389C7.76235 2.62281 7.07672 3.75656 6.74969 5.0175C6.52985 5.86469 5.86703 6.52766 5.01984 6.74735C3.75875 7.07454 2.625 7.76016 1.74124 8.73001C-0.588135 11.2863 -0.572041 15.2769 1.77812 17.815C3.40203 19.5688 5.8586 20.3333 8.19016 19.811C8.84657 19.6638 9.52032 19.6411 10.1819 19.731C9.4911 21.9335 9.14063 24.2182 9.14063 26.5388C9.14063 31.2657 10.2334 35.9574 12.3078 40.1702C11.9564 40.2965 11.5513 40.3688 11.035 40.3688C9.80282 40.3688 9.20032 39.9637 8.42188 39.3455C7.40032 38.5346 6.03281 38.3769 4.85297 38.9338C3.66703 39.4937 2.91609 40.6565 2.89296 41.9685C2.8914 42.0582 2.89062 42.1479 2.89062 42.2379C2.89062 44.8651 3.55515 47.3893 4.82344 49.6382C2.15125 50.1563 0.0778035 52.4637 0.0021784 55.2243C-0.0543842 57.2853 0.994055 59.2484 2.73828 60.3479C4.35187 61.3651 5.56969 62.9126 6.16719 64.7053C6.37203 65.3193 7.03594 65.6511 7.64954 65.4465C8.2636 65.2418 8.59532 64.5782 8.39079 63.9642C7.62235 61.6589 6.05875 59.6704 3.98812 58.3653C2.925 57.6951 2.31078 56.5449 2.34515 55.2887C2.39687 53.4051 4.01703 51.8726 5.95688 51.8726H74.0433C75.9833 51.8726 77.6034 53.4051 77.655 55.2887C77.6894 56.5449 77.0753 57.6951 76.012 58.3653C73.9412 59.6706 72.3776 61.6589 71.6092 63.9642L68.9156 72.0448C67.7973 75.3998 64.67 77.6539 61.1334 77.6539H18.8664C15.33 77.6539 12.2025 75.3998 11.0842 72.0448L10.1239 69.1637C9.91907 68.5497 9.25563 68.2176 8.64157 68.4225C8.02751 68.6272 7.69579 69.2909 7.90032 69.9048L8.86063 72.7859C10.2984 77.0994 14.3194 79.9977 18.8663 79.9977H61.1334C65.6803 79.9977 69.7012 77.0995 71.139 72.7859L73.8326 64.7053C74.4301 62.9125 75.6479 61.3651 77.2617 60.3479C79.0058 59.2486 80.0542 57.2853 79.9976 55.2243C79.9219 52.4543 77.8345 50.141 75.1492 49.6334ZM68.9657 42.7124C70.942 42.7124 72.0603 41.9557 73.0362 41.1807C73.5172 40.7987 74.0179 40.9869 74.16 41.0538C74.3373 41.1373 74.7512 41.3938 74.7629 41.9732L74.7648 42.0954C74.794 44.7704 73.9919 47.3299 72.4425 49.5285H66.2192C66.3917 48.8945 66.4828 48.2374 66.4828 47.5754C66.4828 46.2423 66.1278 44.9913 65.5098 43.9088C65.8821 43.3634 66.2346 42.8077 66.5693 42.2435C67.1856 42.512 67.9609 42.7124 68.9657 42.7124ZM55.7892 49.5287C55.9617 48.8946 56.0528 48.2374 56.0528 47.5756C56.0528 46.3696 55.7618 45.2309 55.2492 44.2231C56.2084 43.1349 57.5971 42.4974 59.0609 42.4974C61.8609 42.4974 64.139 44.7756 64.139 47.5756C64.139 48.2482 64.0039 48.9134 63.7478 49.5287H55.7892ZM43.9444 49.5287C43.6885 48.9134 43.5527 48.2477 43.5527 47.5756C43.5527 44.7756 45.8309 42.4974 48.6309 42.4974C51.4309 42.4974 53.709 44.7756 53.709 47.5756C53.709 48.2482 53.5737 48.9132 53.3177 49.5287H43.9444ZM45.3234 11.1474C48.6621 14.1172 52.9713 15.6908 57.4576 15.5735C57.5145 15.5721 57.5717 15.571 57.6295 15.5703C57.6657 15.57 57.7018 15.5699 57.7381 15.5699C60.5482 15.5699 63.2115 16.6761 65.2476 18.6916C67.3551 20.7778 68.5157 23.5466 68.5157 26.4877V26.5388C68.5157 32.0772 66.9437 37.398 63.9593 42.0068C62.6512 40.8548 60.9368 40.1538 59.0609 40.1538C57.0957 40.1538 55.2224 40.9393 53.8442 42.2993C53.6417 42.0991 53.427 41.9115 53.2026 41.7355C54.3757 37.7749 54.0926 33.5602 52.3846 29.7916C52.1174 29.2021 51.4227 28.941 50.8335 29.208C50.244 29.4751 49.9827 30.1696 50.2499 30.7591C51.6531 33.8554 51.9387 37.3004 51.0898 40.5744C50.3198 40.3032 49.4926 40.154 48.6309 40.154C44.5385 40.154 41.209 43.4835 41.209 47.5759C41.209 48.2373 41.3005 48.8946 41.4732 49.529H31.2207C32.4965 47.2498 33.1507 44.7073 33.1218 42.071L33.1196 41.9257C33.0933 40.6329 32.3466 39.4863 31.1708 38.9334C29.9857 38.3759 28.6143 38.5338 27.5921 39.3455C26.8136 39.9638 26.2111 40.369 24.9791 40.369C23.7193 40.369 23.1172 39.9416 22.3571 39.3365C22.0821 37.7137 22.0761 36.0682 22.3463 34.4415C22.5707 33.0915 22.1269 31.708 21.1594 30.7405C20.7516 30.3327 20.73 29.4233 21.1017 28.3082C21.5689 26.9065 22.6138 25.3258 23.9683 23.9713C25.3229 22.6169 26.9036 21.5721 28.3052 21.1047C29.4204 20.733 30.3297 20.7544 30.7374 21.1624C31.7043 22.1293 33.0897 22.5727 34.4438 22.3483C39.1454 21.5691 43.9545 23.1202 47.3077 26.4975C47.764 26.9569 48.5059 26.9594 48.9651 26.5035C49.4243 26.0475 49.427 25.3055 48.971 24.8461C45.0837 20.9313 39.5096 19.133 34.0607 20.0363C33.4507 20.1371 32.8282 19.9386 32.3947 19.5052C31.3143 18.4247 29.5986 18.203 27.5639 18.8813C27.2172 18.9969 26.8664 19.1378 26.5143 19.3007L21.2414 13.4149C20.3875 12.4617 19.8666 11.2931 19.7224 10.0886C23.2858 7.39688 27.4929 5.98719 31.928 6.01313C36.8735 6.03922 41.6307 7.86282 45.3234 11.1474ZM7.67735 17.5239C6.15813 17.8644 4.55656 17.366 3.49781 16.2225C1.96781 14.5702 1.95718 11.9725 3.47343 10.3086C4.05031 9.67564 4.78859 9.2286 5.60828 9.01595C7.27829 8.58267 8.58501 7.2761 9.01829 5.60594C9.23095 4.78625 9.67798 4.04797 10.3109 3.47109C11.9747 1.95468 14.5725 1.96547 16.225 3.49531C17.3683 4.55375 17.8671 6.15516 17.5264 7.6747C16.9531 10.2314 17.6894 12.9617 19.4958 14.9783L24.4486 20.5069C23.7111 21.0277 22.9902 21.6344 22.311 22.3136C21.6336 22.991 21.0283 23.71 20.5085 24.4454L14.9806 19.4933C12.9642 17.6869 10.2338 16.9507 7.67735 17.5239ZM12.3975 20.4994C12.7564 20.7088 13.0992 20.9544 13.4169 21.2391L19.301 26.5104C19.1367 26.8649 18.9947 27.2179 18.8783 27.5668C18.2 29.6013 18.4217 31.3169 19.5022 32.3976C19.936 32.8313 20.1349 33.4518 20.0344 34.0571C19.8258 35.3129 19.7589 36.5782 19.831 37.8391C19.3132 37.6801 18.7158 37.5799 18.0077 37.5799C16.2149 37.5799 15.1224 38.214 14.2758 38.8509C12.4485 35.0324 11.4844 30.8022 11.4844 26.5388C11.4842 24.4807 11.7919 22.4541 12.3975 20.4994ZM5.23625 42.0094C5.24359 41.5896 5.47422 41.2321 5.85344 41.053C6.0325 40.9685 6.49922 40.8116 6.96438 41.1809C7.94032 41.9557 9.05845 42.7123 11.0349 42.7123C13.1891 42.7123 14.3336 41.7968 15.2533 41.061C16.0789 40.4005 16.6755 39.9234 18.0075 39.9234C19.3392 39.9234 19.9358 40.4005 20.7613 41.061C21.6808 41.7966 22.8252 42.7123 24.9793 42.7123C26.9555 42.7123 28.0738 41.9555 29.0497 41.1805C29.5307 40.7985 30.0315 40.9868 30.1735 41.0537C30.3508 41.1371 30.7647 41.3937 30.7765 41.973L30.7783 42.0952C30.8075 44.7685 30.0043 47.3293 28.4549 49.5284H7.52016C6.02438 47.3835 5.23422 44.8721 5.23422 42.2374C5.23422 42.1616 5.235 42.0854 5.23625 42.0094Z" fill="black"/>
<path d="M42.5371 29.1424C39.7371 29.1424 37.459 31.4205 37.459 34.2205C37.459 37.0205 39.7371 39.2987 42.5371 39.2987C45.3371 39.2987 47.6153 37.0205 47.6153 34.2205C47.6153 31.4205 45.3371 29.1424 42.5371 29.1424ZM42.5371 36.9549C41.0295 36.9549 39.8027 35.7282 39.8027 34.2205C39.8027 32.7129 41.0295 31.4861 42.5371 31.4861C44.0448 31.4861 45.2715 32.7129 45.2715 34.2205C45.2715 35.7282 44.0448 36.9549 42.5371 36.9549Z" fill="black"/>
<path d="M31.113 26.2366C28.7437 26.2366 26.8162 28.1641 26.8162 30.5335C26.8162 32.9029 28.7437 34.8304 31.113 34.8304C33.4824 34.8304 35.4099 32.9029 35.4099 30.5335C35.4099 28.1641 33.4823 26.2366 31.113 26.2366ZM31.113 32.4866C30.036 32.4866 29.1599 31.6106 29.1599 30.5335C29.1599 29.4565 30.036 28.5804 31.113 28.5804C32.1901 28.5804 33.0662 29.4565 33.0662 30.5335C33.0662 31.6106 32.1899 32.4866 31.113 32.4866Z" fill="black"/>
<path d="M27.7537 69.7118C30.2492 69.7118 32.2723 68.1008 32.2723 66.1134C32.2723 64.126 30.2492 62.515 27.7537 62.515C25.2581 62.515 23.235 64.126 23.235 66.1134C23.235 68.1008 25.2581 69.7118 27.7537 69.7118Z" fill="#FFA1AC"/>
<path d="M52.2464 69.7118C54.742 69.7118 56.7651 68.1008 56.7651 66.1134C56.7651 64.126 54.742 62.515 52.2464 62.515C49.7507 62.515 47.7276 64.126 47.7276 66.1134C47.7276 68.1008 49.7507 69.7118 52.2464 69.7118Z" fill="#FFA1AC"/>
<path d="M32.5379 63.3695C31.8907 63.3695 31.366 62.8448 31.366 62.1976C31.366 61.6578 30.9268 61.2187 30.3871 61.2187C29.8474 61.2187 29.4082 61.6579 29.4082 62.1976C29.4082 62.8448 28.8835 63.3695 28.2363 63.3695C27.5891 63.3695 27.0645 62.8448 27.0645 62.1976C27.0645 60.3654 28.5551 58.8749 30.3871 58.8749C32.2192 58.8749 33.7098 60.3656 33.7098 62.1976C33.7098 62.8448 33.1851 63.3695 32.5379 63.3695Z" fill="black"/>
<path d="M51.7637 63.3695C51.1165 63.3695 50.5918 62.8448 50.5918 62.1976C50.5918 61.6578 50.1526 61.2187 49.6129 61.2187C49.0732 61.2187 48.634 61.6579 48.634 62.1976C48.634 62.8448 48.1093 63.3695 47.4621 63.3695C46.8149 63.3695 46.2902 62.8448 46.2902 62.1976C46.2902 60.3654 47.7809 58.8749 49.6129 58.8749C51.4449 58.8749 52.9355 60.3656 52.9355 62.1976C52.9355 62.8448 52.4109 63.3695 51.7637 63.3695Z" fill="black"/>
<path d="M39.9999 66.9226C38.7868 66.9226 37.6334 66.3973 36.8351 65.4814C36.4099 64.9934 36.4607 64.2533 36.9487 63.8279C37.4368 63.4028 38.1768 63.4536 38.6021 63.9415C38.9551 64.3467 39.4648 64.579 40.0001 64.579C40.5354 64.579 41.0449 64.3467 41.3981 63.9415C41.8234 63.4536 42.5635 63.4029 43.0515 63.8279C43.5395 64.2533 43.5903 64.9934 43.1651 65.4814C42.3667 66.3973 41.2131 66.9226 39.9999 66.9226Z" fill="black"/>
</g>
<defs>
<clipPath id="clip0_608_407">
<rect width="80" height="80" fill="white"/>
</clipPath>
</defs>
</svg>
