<svg width="220" height="64" viewBox="0 0 220 64" fill="none" xmlns="http://www.w3.org/2000/svg">
<rect x="0.8" y="0.8" width="218.4" height="62.4" rx="31.2" stroke="#6B430E" stroke-width="1.6"/>
<path fill-rule="evenodd" clip-rule="evenodd" d="M24.2151 15.2554C24.0761 15.6105 24 16.0352 24 16.5223V47.4769C24 47.9649 24.0761 48.3897 24.2152 48.7446L40.9586 31.9989L24.2151 15.2554ZM25.3314 49.8912C25.9413 50.1083 26.7159 50.0069 27.5565 49.5302L47.2812 38.3216L42.0899 33.1303L25.3314 49.8912ZM48.725 37.5026L54.851 34.0221C56.8063 32.9094 56.8063 31.0912 54.851 29.9799L48.722 26.4972L43.2212 31.9988L48.725 37.5026ZM47.2792 25.6774L27.5565 14.4704C26.7159 13.9927 25.9414 13.8917 25.3315 14.1091L42.0898 30.8674L47.2792 25.6774Z" fill="#6B430E"/>
<path d="M109.145 33.8813C105.687 33.8813 102.869 36.511 102.869 40.133C102.869 43.7329 105.687 46.3848 109.145 46.3848C112.603 46.3848 115.421 43.7329 115.421 40.133C115.42 36.511 112.602 33.8813 109.145 33.8813ZM109.145 43.924C107.25 43.924 105.617 42.3615 105.617 40.1345C105.617 37.884 107.251 36.3449 109.145 36.3449C111.039 36.3449 112.673 37.884 112.673 40.1345C112.673 42.36 111.039 43.924 109.145 43.924ZM95.4534 33.8813C91.9961 33.8813 89.1782 36.511 89.1782 40.133C89.1782 43.7329 91.9961 46.3848 95.4534 46.3848C98.9123 46.3848 101.73 43.7329 101.73 40.133C101.73 36.511 98.9123 33.8813 95.4534 33.8813ZM95.4534 43.924C93.5587 43.924 91.9255 42.3615 91.9255 40.1345C91.9255 37.884 93.5601 36.3449 95.4534 36.3449C97.3482 36.3449 98.9813 37.884 98.9813 40.1345C98.9828 42.36 97.3482 43.924 95.4534 43.924ZM79.1692 35.801V38.4528H85.5165C85.3269 39.9449 84.83 41.0341 84.0715 41.7911C83.1484 42.7143 81.7034 43.7329 79.1692 43.7329C75.262 43.7329 72.2074 40.5828 72.2074 36.6757C72.2074 32.7685 75.262 29.6184 79.1692 29.6184C81.2771 29.6184 82.8162 30.4474 83.9525 31.5131L85.8237 29.6419C84.2362 28.1264 82.1297 26.9666 79.1692 26.9666C73.8171 26.9666 69.3175 31.3235 69.3175 36.6757C69.3175 42.0278 73.8171 46.3848 79.1692 46.3848C82.0577 46.3848 84.2376 45.4366 85.9413 43.6609C87.6935 41.9087 88.2389 39.4451 88.2389 37.4562C88.2389 36.8418 88.1918 36.2729 88.0963 35.7996H79.1692V35.801ZM145.77 37.8604C145.25 36.464 143.662 33.8813 140.418 33.8813C137.197 33.8813 134.521 36.4155 134.521 40.133C134.521 43.6374 137.174 46.3848 140.725 46.3848C143.59 46.3848 145.248 44.6326 145.936 43.6139L143.805 42.1924C143.095 43.2346 142.123 43.9211 140.725 43.9211C139.329 43.9211 138.334 43.2817 137.694 42.0263L146.054 38.569L145.77 37.8604ZM137.244 39.9448C137.174 37.5282 139.116 36.2979 140.514 36.2979C141.603 36.2979 142.526 36.8432 142.835 37.6238L137.244 39.9448ZM130.449 46.007H133.195V27.631H130.449V46.007ZM125.948 35.2792H125.854C125.238 34.5442 124.053 33.8813 122.562 33.8813C119.436 33.8813 116.571 36.6286 116.571 40.158C116.571 43.6624 119.436 46.3862 122.562 46.3862C124.054 46.3862 125.238 45.7233 125.854 44.9662H125.948V45.8659C125.948 48.2575 124.669 49.5364 122.61 49.5364C120.928 49.5364 119.886 48.3295 119.459 47.3108L117.068 48.306C117.754 49.9626 119.577 52 122.61 52C125.83 52 128.554 50.1052 128.554 45.4866V34.262H125.949V35.2792H125.948ZM122.799 43.924C120.904 43.924 119.318 42.3365 119.318 40.158C119.318 37.9545 120.904 36.3449 122.799 36.3449C124.669 36.3449 126.137 37.9545 126.137 40.158C126.137 42.3365 124.669 43.924 122.799 43.924ZM158.638 27.631H152.066V46.007H154.808V39.0452H158.637C161.677 39.0452 164.667 36.8447 164.667 33.3388C164.667 29.833 161.678 27.631 158.638 27.631ZM158.709 36.4875H154.808V30.1887H158.709C160.759 30.1887 161.924 31.8865 161.924 33.3388C161.924 34.7618 160.759 36.4875 158.709 36.4875ZM175.66 33.8489C173.675 33.8489 171.618 34.7235 170.767 36.6624L173.201 37.6782C173.722 36.6624 174.692 36.3302 175.707 36.3302C177.126 36.3302 178.568 37.1813 178.592 38.6939V38.8835C178.095 38.5998 177.03 38.175 175.731 38.175C173.107 38.175 170.435 39.617 170.435 42.3115C170.435 44.7707 172.587 46.3539 174.998 46.3539C176.841 46.3539 177.858 45.5263 178.496 44.5561H178.59V45.9746H181.239V38.9291C181.24 35.6687 178.803 33.8489 175.66 33.8489ZM175.328 43.9196C174.432 43.9196 173.178 43.4698 173.178 42.3585C173.178 40.94 174.739 40.3961 176.087 40.3961C177.291 40.3961 177.86 40.6563 178.592 41.0106C178.378 42.7143 176.913 43.9196 175.328 43.9196ZM190.885 34.2502L187.741 42.2174H187.647L184.383 34.2502H181.429L186.322 45.3852L183.532 51.5796H186.393L193.935 34.2502H190.885ZM166.181 46.007H168.922V27.631H166.181V46.007Z" fill="#6B430E"/>
<path d="M78.6901 16.9655C78.6901 18.1973 78.3256 19.1778 77.595 19.9098C76.7659 20.78 75.684 21.2151 74.3552 21.2151C73.0822 21.2151 71.9988 20.7741 71.1095 19.8922C70.2187 19.0087 69.7733 17.9151 69.7733 16.6097C69.7733 15.3029 70.2187 14.2093 71.1095 13.3273C71.9988 12.4439 73.0822 12.0029 74.3552 12.0029C74.9873 12.0029 75.5914 12.1263 76.1647 12.3718C76.7395 12.6188 77.1996 12.9466 77.5435 13.3567L76.7689 14.1328C76.1853 13.4346 75.3812 13.0862 74.3537 13.0862C73.4247 13.0862 72.6221 13.4126 71.9444 14.0652C71.2668 14.7179 70.9287 15.5661 70.9287 16.6083C70.9287 17.6505 71.2668 18.4986 71.9444 19.1513C72.6221 19.804 73.4247 20.1303 74.3537 20.1303C75.3386 20.1303 76.1603 19.8025 76.8174 19.1454C77.2437 18.7177 77.4906 18.1223 77.5568 17.3594H74.3537V16.2996H78.6269C78.671 16.5304 78.6901 16.7523 78.6901 16.9655Z" fill="#6B430E"/>
<path d="M85.4668 13.2818H81.4508V16.0777H85.0728V17.1375H81.4508V19.9334H85.4668V21.0182H80.3175V12.1985H85.4668V13.2818Z" fill="#6B430E"/>
<path d="M90.2455 21.0182H89.1121V13.2818H86.6485V12.1985H92.7091V13.2818H90.2455V21.0182Z" fill="#6B430E"/>
<path d="M97.0939 21.0182V12.1985H98.2273V21.0182H97.0939Z" fill="#6B430E"/>
<path d="M103.253 21.0182H102.12V13.2818H99.6563V12.1985H105.717V13.2818H103.253V21.0182Z" fill="#6B430E"/>
<path d="M117.19 19.879C116.322 20.7698 115.245 21.2152 113.956 21.2152C112.667 21.2152 111.589 20.7698 110.723 19.879C109.856 18.9882 109.424 17.8975 109.424 16.6083C109.424 15.3192 109.856 14.2285 110.723 13.3377C111.589 12.4469 112.667 12 113.956 12C115.238 12 116.314 12.4483 117.184 13.3435C118.054 14.2388 118.489 15.3265 118.489 16.6083C118.489 17.8975 118.056 18.9882 117.19 19.879ZM111.56 19.1396C112.212 19.8011 113.011 20.1304 113.956 20.1304C114.901 20.1304 115.701 19.7996 116.352 19.1396C117.004 18.4781 117.332 17.6344 117.332 16.6083C117.332 15.5823 117.004 14.7385 116.352 14.0771C115.701 13.4156 114.901 13.0863 113.956 13.0863C113.011 13.0863 112.212 13.417 111.56 14.0771C110.909 14.7385 110.581 15.5823 110.581 16.6083C110.581 17.6344 110.909 18.4781 111.56 19.1396Z" fill="#6B430E"/>
<path d="M120.08 21.0182V12.1985H121.459L125.745 19.0588H125.793L125.745 17.3595V12.1985H126.878V21.0182H125.695L121.21 13.8242H121.162L121.21 15.5235V21.0182H120.08Z" fill="#6B430E"/>
<path d="M78.6901 16.9655C78.6901 18.1973 78.3256 19.1778 77.595 19.9098C76.7659 20.78 75.684 21.2151 74.3552 21.2151C73.0822 21.2151 71.9988 20.7741 71.1095 19.8922C70.2187 19.0087 69.7733 17.9151 69.7733 16.6097C69.7733 15.3029 70.2187 14.2093 71.1095 13.3273C71.9988 12.4439 73.0822 12.0029 74.3552 12.0029C74.9873 12.0029 75.5914 12.1263 76.1647 12.3718C76.7395 12.6188 77.1996 12.9466 77.5435 13.3567L76.7689 14.1328C76.1853 13.4346 75.3812 13.0862 74.3537 13.0862C73.4247 13.0862 72.6221 13.4126 71.9444 14.0652C71.2668 14.7179 70.9287 15.5661 70.9287 16.6083C70.9287 17.6505 71.2668 18.4986 71.9444 19.1513C72.6221 19.804 73.4247 20.1303 74.3537 20.1303C75.3386 20.1303 76.1603 19.8025 76.8174 19.1454C77.2437 18.7177 77.4906 18.1223 77.5568 17.3594H74.3537V16.2996H78.6269C78.671 16.5304 78.6901 16.7523 78.6901 16.9655Z" stroke="#6B430E" stroke-width="0.32" stroke-miterlimit="10"/>
<path d="M85.4668 13.2818H81.4508V16.0777H85.0728V17.1375H81.4508V19.9334H85.4668V21.0182H80.3175V12.1985H85.4668V13.2818Z" stroke="#6B430E" stroke-width="0.32" stroke-miterlimit="10"/>
<path d="M90.2455 21.0182H89.1121V13.2818H86.6485V12.1985H92.7091V13.2818H90.2455V21.0182Z" stroke="#6B430E" stroke-width="0.32" stroke-miterlimit="10"/>
<path d="M97.0939 21.0182V12.1985H98.2273V21.0182H97.0939Z" stroke="#6B430E" stroke-width="0.32" stroke-miterlimit="10"/>
<path d="M103.253 21.0182H102.12V13.2818H99.6563V12.1985H105.717V13.2818H103.253V21.0182Z" stroke="#6B430E" stroke-width="0.32" stroke-miterlimit="10"/>
<path d="M117.19 19.879C116.322 20.7698 115.245 21.2152 113.956 21.2152C112.667 21.2152 111.589 20.7698 110.723 19.879C109.856 18.9882 109.424 17.8975 109.424 16.6083C109.424 15.3192 109.856 14.2285 110.723 13.3377C111.589 12.4469 112.667 12 113.956 12C115.238 12 116.314 12.4483 117.184 13.3435C118.054 14.2388 118.489 15.3265 118.489 16.6083C118.489 17.8975 118.056 18.9882 117.19 19.879ZM111.56 19.1396C112.212 19.8011 113.011 20.1304 113.956 20.1304C114.901 20.1304 115.701 19.7996 116.352 19.1396C117.004 18.4781 117.332 17.6344 117.332 16.6083C117.332 15.5823 117.004 14.7385 116.352 14.0771C115.701 13.4156 114.901 13.0863 113.956 13.0863C113.011 13.0863 112.212 13.417 111.56 14.0771C110.909 14.7385 110.581 15.5823 110.581 16.6083C110.581 17.6344 110.909 18.4781 111.56 19.1396Z" stroke="#6B430E" stroke-width="0.32" stroke-miterlimit="10"/>
<path d="M120.08 21.0182V12.1985H121.459L125.745 19.0588H125.793L125.745 17.3595V12.1985H126.878V21.0182H125.695L121.21 13.8242H121.162L121.21 15.5235V21.0182H120.08Z" stroke="#6B430E" stroke-width="0.32" stroke-miterlimit="10"/>
</svg>
