<svg width="500" height="610" viewBox="0 0 500 610" fill="none" xmlns="http://www.w3.org/2000/svg">
<path d="M500 279.14C500 279.14 492.7 45.3402 260.2 45.3402C27.7 45.3402 0 279.14 0 279.14H500Z" fill="#F2E3A1"/>
<path d="M377.9 137.24C384.5 138.44 391.2 140.14 396.2 144.54C401.3 148.84 404.1 156.44 401.3 162.44C398.9 167.54 393.2 170.14 387.8 171.64C367.9 177.04 346.4 171.74 326.2 175.84C326 168.14 326.8 160.54 328.5 153.04C329.5 148.74 330.5 139.64 334.3 136.84C338.7 133.54 349.7 134.94 354.9 135.04C362.6 135.14 370.3 135.84 377.9 137.24Z" fill="#844210"/>
<path d="M194.4 268.64C194.6 269.94 194.9 271.44 194.4 272.64C193.6 274.54 191.4 275.44 189.5 276.04C179.1 279.04 168.1 279.84 157.4 278.34C155 262.64 152.7 246.94 150.3 231.24C150.1 230.14 150 229.04 150.4 227.94C151 226.54 152.5 225.84 154 225.34C160.1 222.94 166.6 221.14 173.1 221.24C181.8 221.54 193 221.94 193.7 231.04C194.6 242.64 192.3 257.14 194.4 268.64Z" fill="#844210"/>
<path d="M259 128.74C259 128.74 290.5 123.24 338.1 135.34C338.1 135.34 340.4 160.54 332.5 177.94L311.1 179.44L312.6 203.94L193.9 228.24L189.7 142.94L219.1 136.54L259 128.74Z" fill="#CCC200"/>
<path d="M154.9 173.04C145.6 190.24 144.7 210.64 144.1 230.24C141.3 238.84 183 233.94 188.5 233.64C191.8 233.54 195.1 228.54 195.4 225.34C199.7 199.24 196.2 150.94 191.1 143.34C179.2 140.94 160 162.74 154.9 173.04Z" fill="#CCC200"/>
<mask id="mask0_608_406" style="mask-type:luminance" maskUnits="userSpaceOnUse" x="143" y="127" width="196" height="109">
<path d="M144.1 230.14C144.7 210.54 145.6 190.14 154.9 172.94C159.8 163.04 177.9 142.44 189.8 143.04V142.84L219.2 136.44L259 128.74C259 128.74 290.5 123.24 338.1 135.34C338.1 135.34 340.4 160.54 332.5 177.94L311.1 179.44L312.6 203.94L194.5 228.04C193.3 230.74 190.9 233.44 188.4 233.54C183 233.94 141.3 238.84 144.1 230.14Z" fill="white"/>
</mask>
<g mask="url(#mask0_608_406)">
<path d="M287.5 122.54C279.4 138.74 263.4 150.74 245.5 153.94C232.3 156.24 218.8 153.94 205.8 150.74C196.6 148.44 187.4 145.74 178.4 142.54" stroke="#032021" stroke-miterlimit="10" stroke-linecap="round" stroke-linejoin="round"/>
<path d="M307 122.74C302.1 136.34 292 147.84 279.8 155.74C267.6 163.64 253.5 168.24 239.2 170.44C227.4 172.24 215.3 172.64 203.5 171.04C186.8 168.84 170.9 163.04 155.1 157.34" stroke="#032021" stroke-miterlimit="10" stroke-linecap="round" stroke-linejoin="round"/>
<path d="M321.3 123.24C322.2 136.14 322.9 150.14 315.4 160.64C310.3 167.84 302.1 172.24 294 175.84C264.4 188.84 231.4 193.94 199.3 190.44C180.9 188.44 161.8 183.24 148.6 170.24" stroke="#032021" stroke-miterlimit="10" stroke-linecap="round" stroke-linejoin="round"/>
<path d="M329.4 128.74C329.7 138.64 330.1 148.44 330.4 158.34C330.6 163.44 330.7 168.74 329.1 173.54C325 185.54 311.6 191.34 299.4 194.94C271.9 203.14 243.3 207.74 214.6 208.64C207.3 208.84 199.9 208.84 192.7 207.74C173.5 204.74 156.3 194.24 140.7 182.74" stroke="#032021" stroke-miterlimit="10" stroke-linecap="round" stroke-linejoin="round"/>
<path d="M203.4 223.54C179.7 227.04 154.7 221.04 135.1 207.24" stroke="#032021" stroke-miterlimit="10" stroke-linecap="round" stroke-linejoin="round"/>
</g>
<path d="M193.6 276.84C192 260.34 194 228.04 194 228.04C205.6 201.14 204.6 169.14 191.1 143.04C193.6 141.94 196.8 140.94 200.5 140.74C205.1 153.24 209.4 166.74 212.7 179.64C214.9 188.04 216.9 196.74 215.9 205.44C242 208.04 269.6 202.34 292.3 189.14C287.3 166.84 278 147.94 266.8 128.04C270.3 127.04 272.8 126.64 275.3 127.24C289.7 143.94 294.6 163.64 300.7 184.84C302.3 190.54 304.4 196.54 309 200.24C310.1 201.14 311.3 201.84 312.1 202.94C312.9 204.14 313.1 205.54 313.3 206.94C317.6 238.34 320.4 269.84 321.7 301.54C296.9 302.94 272.1 302.64 247.4 300.64C240.8 300.14 234.1 299.44 227.8 297.54C215.6 293.84 203.8 284.54 193.6 276.84Z" fill="white"/>
<path d="M289.2 56.1402C289.5 52.4402 289.9 48.6402 290.2 44.9402" stroke="#032021" stroke-miterlimit="10" stroke-linecap="round" stroke-linejoin="round"/>
<path d="M285.5 57.2402C285.1 52.7402 284.2 48.2402 282.7 43.9402" stroke="#032021" stroke-miterlimit="10" stroke-linecap="round" stroke-linejoin="round"/>
<path d="M280.3 57.2402C278.8 54.9402 277.3 52.7402 275.9 50.4402" stroke="#032021" stroke-miterlimit="10" stroke-linecap="round" stroke-linejoin="round"/>
<path d="M384.3 168.14C349.2 152.34 349.5 105.44 320.3 84.5402C311.5 79.9402 300.1 83.8402 291.2 79.5402C284.2 73.8402 305.8 77.9402 307.9 73.8402C314.3 67.5402 306 61.8402 299.5 65.9402C295.4 67.9402 291.7 70.7402 288.8 74.2402C278.4 78.3402 292.5 55.4402 305.8 54.5402C302.9 46.9402 295.9 40.8402 293.3 33.2402C292.6 31.2402 294.8 29.4402 296.6 30.5402C302.4 33.9402 307.1 39.8402 311.1 45.0402C303.6 5.14018 315.8 14.6402 317.7 46.0402C319.8 8.74018 327.3 42.7402 323.8 57.0402C347.5 81.5402 376.1 101.04 399.5 125.84C404.2 130.84 407.8 136.74 409.8 143.24C413.2 154.64 412.7 169.64 384.3 168.14Z" fill="#844210"/>
<path d="M346.5 120.84C346.5 120.84 362.7 162.44 384.3 168.24" stroke="#032021" stroke-miterlimit="10" stroke-linecap="round" stroke-linejoin="round"/>
<path d="M189.7 101.94C185.3 104.04 184.8 112.24 190.8 111.04C189.7 115.84 195.1 120.14 199.5 117.84C199.8 125.94 210 127.34 216 124.14C216.4 131.04 233 133.24 236.5 125.64C240.1 136.44 253.7 130.74 253.6 122.34C257.5 129.14 272.3 124.94 265.8 117.34C268.9 117.44 269 113.34 268.1 111.14C263.6 88.0402 218.4 92.1403 200.5 92.5403C197.4 96.3403 194.4 100.04 189.7 101.94Z" fill="#FF8A50"/>
<path d="M213 111.34C213.1 111.44 213 111.64 212.9 111.74C211.5 113.04 209.2 113.24 207.5 112.54C205.7 111.74 204.4 110.14 203.7 108.34" stroke="#032021" stroke-miterlimit="10" stroke-linecap="round" stroke-linejoin="round"/>
<path d="M219.6 114.64C219.2 116.64 217.2 118.24 215.1 118.14" stroke="#032021" stroke-miterlimit="10" stroke-linecap="round" stroke-linejoin="round"/>
<path d="M209.3 118.04C207.5 118.94 205.1 118.44 203.9 116.84" stroke="#032021" stroke-miterlimit="10" stroke-linecap="round" stroke-linejoin="round"/>
<path d="M197.3 111.54C197.2 109.54 195.1 107.84 193.2 108.24" stroke="#032021" stroke-miterlimit="10" stroke-linecap="round" stroke-linejoin="round"/>
<path d="M264.1 112.84C264.9 114.74 263.8 117.24 261.8 117.94" stroke="#032021" stroke-miterlimit="10" stroke-linecap="round" stroke-linejoin="round"/>
<path d="M258.3 116.74C257.1 117.34 256.6 119.14 257.4 120.34" stroke="#032021" stroke-miterlimit="10" stroke-linecap="round" stroke-linejoin="round"/>
<path d="M254.4 99.3402C249.8 107.24 253 122.64 259 128.64C257 137.34 253.8 141.74 248.9 148.44C247.9 149.74 246.2 150.44 244.6 150.14C235.2 148.24 226.8 142.54 218.2 138.44C223.5 125.94 222.4 111.34 219 98.7402C228.7 91.7402 243.8 94.5402 254.4 99.3402Z" fill="#844210"/>
<path d="M241.2 120.24C236.5 118.44 232.9 113.64 230.5 109.14C234.4 108.84 238.4 108.64 242.4 108.64C245.5 108.64 248.8 108.74 251.4 110.44C251.7 110.64 252.1 110.94 252.4 111.24C252.5 111.84 252.6 112.34 252.7 112.94C253.1 114.64 254.1 119.14 254.7 121.44C251.5 123.14 245.2 121.84 241.2 120.24Z" fill="#032021"/>
<path d="M253.9 45.4402C259.9 52.5402 265.3 75.3402 277.1 62.9402C278.5 67.7402 276.1 69.9402 271.9 72.6402C272.9 73.9402 273.8 75.0402 274.4 76.1402C275.9 77.2402 279.6 74.8402 280.6 76.6402C281.1 77.9402 279.2 79.0402 279.4 80.4402C284.4 86.6402 276.1 84.1402 275.7 94.6402C271.8 118.74 247.5 114.34 225 109.24C153.6 77.0402 209.1 0.340164 253.9 45.4402Z" fill="#844210"/>
<path d="M215.74 109.126C210.726 105.795 208.642 100.111 211.087 96.4307C213.531 92.7502 219.578 92.4668 224.593 95.7976C229.607 99.1285 231.691 104.812 229.246 108.493C226.802 112.173 220.755 112.456 215.74 109.126Z" fill="#844210"/>
<path d="M247.5 73.5402C246.2 65.4402 256.9 61.1402 262.5 66.6402C256.4 64.6402 251.3 69.3402 247.5 73.5402Z" fill="#032021"/>
<path d="M257.7 72.4402C263.4 71.0402 265.2 78.6402 261.2 81.8402C256.9 86.6402 246.8 87.5402 249.2 78.5402C250.8 75.5402 254.5 73.0402 257.7 72.4402Z" fill="#FF5920"/>
<path d="M214.2 100.64C214.1 99.1401 215.3 97.7401 216.7 97.3401C218.1 96.8401 219.7 97.1401 221 97.9401C222.3 98.6401 223.3 99.7401 224.3 100.94C223.2 99.8401 221.2 99.8401 220.1 100.84C218.9 101.94 218.9 104.04 219.9 105.34C220.9 106.64 222.6 107.24 224.2 107.14C225 107.04 225.9 106.84 226.5 106.34C227.1 105.84 227.5 104.94 227.4 104.14" stroke="#032021" stroke-miterlimit="10" stroke-linecap="round" stroke-linejoin="round"/>
<path d="M241.2 68.5401C241.6 60.7401 257.6 57.7401 251.8 55.5401C251.1 55.2401 250.4 55.5401 250.1 55.7401C245.3 57.6401 238.7 62.6401 241.2 68.5401Z" fill="#032021"/>
<path d="M225.7 69.7402C231.2 89.8402 235.9 94.6402 212.5 96.0402C209 84.2402 208.5 70.2402 214.6 59.2402C231.9 41.1402 222.4 58.8402 225.7 69.7402Z" fill="#FF8A50"/>
<path d="M220.7 63.2402C219.8 67.1402 221 71.1402 222.3 74.9402C223.6 78.7402 225.1 82.5402 224.8 86.5402" stroke="#032021" stroke-miterlimit="10" stroke-linecap="round" stroke-linejoin="round"/>
<path d="M219.5 76.0403C221.2 80.8403 222.6 85.8403 223.6 90.8403" stroke="#032021" stroke-miterlimit="10" stroke-linecap="round" stroke-linejoin="round"/>
<path d="M218 82.9402C218.5 85.6402 218.7 88.3402 218.5 91.1402" stroke="#032021" stroke-miterlimit="10" stroke-linecap="round" stroke-linejoin="round"/>
<path d="M216.3 19.5402C212.4 14.8402 209.2 9.64018 205 5.34018C202.7 2.94018 199.8 0.840182 196.6 0.440182C193.3 0.0401819 189.6 2.04018 189 5.34018C188.8 6.34018 189 7.44018 188.6 8.44018C188.1 9.74018 186.8 10.4402 185.5 10.9402C180.6 12.9402 175.2 13.3402 170.2 15.1402C165.2 16.9402 160.4 20.9402 160.3 26.2402C160.2 28.6402 161.2 31.1402 160.3 33.3402C159.7 34.8402 158.4 35.9402 157.1 37.0402C154.1 39.5402 151.2 42.3402 149.3 45.7402C147.4 49.1402 146.6 53.4402 148.1 57.0402C149.8 61.3402 154.4 64.9402 153.7 69.4402C153.4 71.1402 152.5 72.5402 151.8 74.1402C148.8 80.9402 151.7 89.3402 157.3 94.3402C162.9 99.3402 170.5 101.34 177.9 101.74C185.3 102.24 192.8 101.34 200.2 101.34C197.5 87.5402 198.3 72.8402 203.5 59.8402C206 53.5402 209.6 47.6402 214.1 42.6402C218.8 37.2402 224.4 34.0402 230 29.9402C228.4 28.2402 224.9 27.3402 222.9 25.8402C220.3 24.0402 218.2 21.8402 216.3 19.5402Z" fill="#8CC2F2"/>
<path d="M234 44.0402C224.3 53.4402 216.4 65.2402 214.3 78.5402C212.5 88.0402 214.7 97.1402 212.1 105.54C169.6 113.64 203.1 12.9402 235.7 30.8402C250.5 36.0402 239.8 37.0402 234 44.0402Z" fill="#8CC2F2"/>
<path d="M209.8 38.9403C214.9 33.9403 221.9 28.9403 229.1 28.9403C226.8 28.1403 224.8 26.4403 222.3 26.1403C216.8 28.5403 212.3 34.4403 209.8 38.9403Z" fill="#032021"/>
<path d="M196.7 101.54C195.9 100.74 195.4 99.5402 195.1 98.5402C194 95.0402 193.3 91.5402 193.2 87.8402C192.6 92.3402 192.2 97.1402 192.9 101.64C194.1 101.54 195.6 101.84 196.7 101.54Z" fill="#032021"/>
<path d="M208.1 39.6402C206.9 38.0402 205.6 36.5402 204.4 34.9402" stroke="#032021" stroke-miterlimit="10" stroke-linecap="round" stroke-linejoin="round"/>
<path d="M205.2 43.9402C201 40.9402 196.9 37.9402 192.7 34.9402" stroke="#032021" stroke-miterlimit="10" stroke-linecap="round" stroke-linejoin="round"/>
<path d="M199.6 52.0402C197.6 51.0402 195.5 50.0402 193.5 48.9402" stroke="#032021" stroke-miterlimit="10" stroke-linecap="round" stroke-linejoin="round"/>
<path d="M196.5 64.1403C191.2 61.3403 185.8 58.4403 180.5 55.6403" stroke="#032021" stroke-miterlimit="10" stroke-linecap="round" stroke-linejoin="round"/>
<path d="M193.2 70.4402C190.9 69.9402 188.6 69.1402 186.6 67.8402" stroke="#032021" stroke-miterlimit="10" stroke-linecap="round" stroke-linejoin="round"/>
<path d="M190.9 78.6402C186 77.9402 181 77.7402 176.1 77.9402" stroke="#032021" stroke-miterlimit="10" stroke-linecap="round" stroke-linejoin="round"/>
<path d="M189.3 86.7402C186.7 86.5402 184.2 86.5401 181.6 86.6401" stroke="#032021" stroke-miterlimit="10" stroke-linecap="round" stroke-linejoin="round"/>
<path d="M189.9 93.9402C187.4 93.8402 184.9 94.0402 182.5 94.4402" stroke="#032021" stroke-miterlimit="10" stroke-linecap="round" stroke-linejoin="round"/>
<path d="M210.9 34.2402C208.6 30.2402 206 26.4402 203.2 22.8402" stroke="#032021" stroke-miterlimit="10" stroke-linecap="round" stroke-linejoin="round"/>
<path d="M0 279.797H500V609.797H0V279.797Z" fill="#FFF8DB"/>
<path d="M333.6 279.14H248.9" stroke="#032021" stroke-miterlimit="10" stroke-linecap="round" stroke-linejoin="round"/>
<path d="M222.482 335.417C169.88 329.734 129.036 308.48 131.255 287.945C133.473 267.409 177.914 255.368 230.516 261.051C283.118 266.733 323.962 287.987 321.743 308.523C319.525 329.058 275.084 341.099 222.482 335.417Z" fill="#8CC2F2"/>
<path d="M143.9 285.04C141.8 304.44 173.9 324.54 223.6 329.94C273.3 335.34 310.8 323.84 312.9 304.44C315 285.04 280.9 265.04 231.2 259.64C181.5 254.24 146 265.64 143.9 285.04Z" fill="#FFB47E"/>
<path d="M224.375 322.761C184.786 318.484 154.049 302.465 155.722 286.981C157.395 271.497 190.844 262.411 230.433 266.688C270.021 270.965 300.758 286.984 299.086 302.468C297.413 317.952 263.964 327.038 224.375 322.761Z" fill="#844210"/>
<path d="M203.6 288.74C203.2 281.44 194.1 279.44 190.5 274.14C187.8 285.34 190.7 294.34 203.6 288.74Z" fill="#CCC200"/>
<mask id="mask1_608_406" style="mask-type:luminance" maskUnits="userSpaceOnUse" x="189" y="274" width="15" height="17">
<path d="M203.6 288.74C203.5 285.34 200.9 282.64 198.2 280.64C195.5 278.64 192.4 276.94 190.5 274.14C189.9 276.34 189.7 278.84 189.6 281.14C189.5 282.94 189.7 284.84 190.4 286.54C191.1 288.24 192.5 289.74 194.3 290.24C195.3 290.54 196.4 290.44 197.4 290.44C199.4 290.34 201.7 288.84 203.6 288.74Z" fill="white"/>
</mask>
<g mask="url(#mask1_608_406)">
<path d="M204.4 288.94C201.6 285.34 196.4 284.64 194.1 280.64C195.2 285.44 200.8 286.54 204.4 288.94Z" fill="#032021"/>
</g>
<path d="M233.4 286.34C233.8 279.04 242.9 277.04 246.5 271.74C249.3 282.94 246.3 291.94 233.4 286.34Z" fill="#CCC200"/>
<mask id="mask2_608_406" style="mask-type:luminance" maskUnits="userSpaceOnUse" x="233" y="271" width="15" height="18">
<path d="M233.4 286.34C233.5 282.94 236.1 280.24 238.8 278.24C241.5 276.24 244.6 274.54 246.5 271.74C247.1 273.94 247.3 276.44 247.4 278.74C247.5 280.54 247.3 282.44 246.6 284.14C245.9 285.84 244.5 287.34 242.7 287.84C241.7 288.14 240.6 288.04 239.6 288.04C237.6 288.04 235.4 286.44 233.4 286.34Z" fill="white"/>
</mask>
<g mask="url(#mask2_608_406)">
<path d="M232.7 286.64C236.3 284.24 241.9 283.14 243 278.34C240.6 282.34 235.5 283.04 232.7 286.64Z" fill="#032021"/>
</g>
<path d="M259.6 304.44C263.6 298.24 272.5 301.04 278.2 298.24C275.1 309.34 268 315.74 259.6 304.44Z" fill="#CCC200"/>
<mask id="mask3_608_406" style="mask-type:luminance" maskUnits="userSpaceOnUse" x="259" y="298" width="20" height="13">
<path d="M259.6 304.44C261.3 301.54 265 300.44 268.3 300.04C271.7 299.64 275.2 299.74 278.2 298.24C277.6 300.44 276.6 302.74 275.5 304.74C274.6 306.34 273.6 307.94 272.1 309.04C270.6 310.14 268.7 310.74 266.9 310.34C265.9 310.04 265 309.54 264.1 308.94C262.5 307.94 261.3 305.54 259.6 304.44Z" fill="white"/>
</mask>
<g mask="url(#mask3_608_406)">
<path d="M258.9 304.24C263.2 303.94 268.6 305.74 272 302.14C267.9 304.44 263.1 302.54 258.9 304.24Z" fill="#032021"/>
</g>
<path d="M210.7 301.84C217.8 300.04 222.4 308.14 228.5 310.04C218.7 315.94 209.2 315.74 210.7 301.84Z" fill="#CCC200"/>
<mask id="mask4_608_406" style="mask-type:luminance" maskUnits="userSpaceOnUse" x="210" y="301" width="19" height="13">
<path d="M210.7 301.84C213.9 300.94 217.4 302.54 220.1 304.64C222.8 306.64 225.3 309.14 228.6 310.04C226.7 311.24 224.3 312.24 222.2 312.94C220.5 313.54 218.6 313.94 216.8 313.84C215 313.64 213.1 312.74 212.1 311.24C211.5 310.34 211.3 309.34 211 308.34C210.4 306.34 211.2 303.74 210.7 301.84Z" fill="white"/>
</mask>
<g mask="url(#mask4_608_406)">
<path d="M210.3 301.14C213.7 303.84 216.4 308.84 221.3 308.54C216.8 307.54 214.5 302.74 210.3 301.14Z" fill="#032021"/>
</g>
<path d="M254.4 289.44C254 292.04 259.2 295.14 266.2 296.34C273.2 297.54 279.1 296.34 279.6 293.74C280 291.14 274.8 288.04 267.8 286.84C260.8 285.64 254.8 286.84 254.4 289.44Z" fill="#FF5920"/>
<path d="M279.4 292.74C279.4 292.74 278.2 301.04 257.4 293.44" stroke="#032021" stroke-miterlimit="10" stroke-linecap="round" stroke-linejoin="round"/>
<path d="M234.7 312.34C234.4 314.94 239.9 317.74 246.9 318.54C253.9 319.34 259.8 317.74 260.1 315.14C260.4 312.54 254.9 309.74 247.9 308.94C240.9 308.14 235 309.74 234.7 312.34Z" fill="#FF5920"/>
<path d="M259.9 314.04C259.9 314.04 259.2 322.34 238 316.04" stroke="#032021" stroke-miterlimit="10" stroke-linecap="round" stroke-linejoin="round"/>
<path d="M169.3 296.84C169 299.44 174.5 302.24 181.5 303.04C188.5 303.84 194.4 302.24 194.7 299.64C195 297.04 189.5 294.24 182.5 293.44C175.5 292.74 169.5 294.24 169.3 296.84Z" fill="#FF5920"/>
<path d="M194.5 298.54C194.5 298.54 193.8 306.84 172.6 300.54" stroke="#032021" stroke-miterlimit="10" stroke-linecap="round" stroke-linejoin="round"/>
<path d="M217 294.24C216.6 296.84 221.8 299.94 228.8 301.14C235.8 302.34 241.7 301.14 242.2 298.54C242.6 295.94 237.4 292.84 230.4 291.64C223.5 290.54 217.5 291.64 217 294.24Z" fill="#FF5920"/>
<path d="M240.4 295.54C240.4 295.54 246.1 301.64 233.4 301.64C220.7 301.64 217.2 295.54 217.2 295.54" stroke="#032021" stroke-miterlimit="10" stroke-linecap="round" stroke-linejoin="round"/>
<path d="M201.3 276.34C200.9 278.94 206.1 282.04 213.1 283.24C220.1 284.44 226 283.24 226.5 280.64C226.9 278.04 221.7 274.94 214.7 273.74C207.7 272.64 201.7 273.74 201.3 276.34Z" fill="#FF5920"/>
<path d="M226.4 280.64C226.4 280.64 223.9 287.14 206.1 281.24" stroke="#032021" stroke-miterlimit="10" stroke-linecap="round" stroke-linejoin="round"/>
<path opacity="0.28" d="M257.5 282.34C255.015 282.34 253 281.49 253 280.44C253 279.391 255.015 278.54 257.5 278.54C259.985 278.54 262 279.391 262 280.44C262 281.49 259.985 282.34 257.5 282.34Z" fill="white"/>
<path opacity="0.28" d="M253 303.44C250.515 303.44 248.5 302.589 248.5 301.54C248.5 300.491 250.515 299.64 253 299.64C255.485 299.64 257.5 300.491 257.5 301.54C257.5 302.589 255.485 303.44 253 303.44Z" fill="white"/>
<path opacity="0.28" d="M223 295.54C223 296.64 225 297.44 227.5 297.44C230 297.44 232 296.54 232 295.54C232 294.54 230 293.64 227.5 293.64C225 293.64 223 294.44 223 295.54Z" fill="white"/>
<path opacity="0.28" d="M257.5 290.74C257.5 291.84 259.5 292.64 262 292.64C264.5 292.64 266.5 291.74 266.5 290.74C266.5 289.74 264.5 288.84 262 288.84C259.5 288.84 257.5 289.74 257.5 290.74Z" fill="white"/>
<path opacity="0.28" d="M206.1 277.94C206.1 279.04 208.1 279.84 210.6 279.84C213.1 279.84 215.1 278.94 215.1 277.94C215.1 276.94 213.1 276.04 210.6 276.04C208.1 276.04 206.1 276.94 206.1 277.94Z" fill="white"/>
<path opacity="0.28" d="M192.8 306.24C192.8 307.34 194.8 308.14 197.3 308.14C199.8 308.14 201.8 307.24 201.8 306.24C201.8 305.14 199.8 304.34 197.3 304.34C194.8 304.34 192.8 305.14 192.8 306.24Z" fill="white"/>
<path opacity="0.28" d="M168 279.94C168 281.04 170 281.84 172.5 281.84C175 281.84 177 280.94 177 279.94C177 278.94 175 278.04 172.5 278.04C170 278.04 168 278.84 168 279.94Z" fill="white"/>
<path opacity="0.28" d="M225.5 271.74C225.5 272.84 227.5 273.64 230 273.64C232.5 273.64 234.5 272.74 234.5 271.74C234.5 270.74 232.5 269.84 230 269.84C227.5 269.84 225.5 270.74 225.5 271.74Z" fill="white"/>
<path opacity="0.28" d="M173 297.44C173 298.54 175 299.34 177.5 299.34C180 299.34 182 298.44 182 297.44C182 296.34 180 295.54 177.5 295.54C175 295.54 173 296.34 173 297.44Z" fill="white"/>
<path opacity="0.28" d="M244.5 314.04C244.5 315.14 246.5 315.94 249 315.94C251.5 315.94 253.5 315.04 253.5 314.04C253.5 313.04 251.5 312.14 249 312.14C246.5 312.14 244.5 313.04 244.5 314.04Z" fill="white"/>
<path d="M297.3 294.64C297.3 294.64 309.4 315.64 267 322.04C224.5 328.34 198.5 318.04 198.5 318.04" stroke="#032021" stroke-miterlimit="10" stroke-linecap="round" stroke-linejoin="round"/>
<path opacity="0.51" d="M190.3 264.04C187.925 264.04 186 263.369 186 262.54C186 261.712 187.925 261.04 190.3 261.04C192.675 261.04 194.6 261.712 194.6 262.54C194.6 263.369 192.675 264.04 190.3 264.04Z" fill="#FFB47E"/>
<path opacity="0.51" d="M154.4 280.04C152.025 280.04 150.1 279.369 150.1 278.54C150.1 277.712 152.025 277.04 154.4 277.04C156.775 277.04 158.7 277.712 158.7 278.54C158.7 279.369 156.775 280.04 154.4 280.04Z" fill="#FFB47E"/>
<path opacity="0.51" d="M244.5 326.64C244.5 327.24 245.8 327.64 247.5 327.64C249.1 327.64 250.5 327.14 250.5 326.64C250.5 326.04 249.2 325.64 247.5 325.64C245.8 325.54 244.5 326.04 244.5 326.64Z" fill="#FFB47E"/>
<path opacity="0.51" d="M302.6 307.64C302.6 308.24 303.9 308.64 305.6 308.64C307.2 308.64 308.6 308.14 308.6 307.64C308.6 307.04 307.3 306.64 305.6 306.64C303.9 306.54 302.6 307.04 302.6 307.64Z" fill="#FFB47E"/>
<path opacity="0.51" d="M147.2 286.44C147.2 287.04 148.5 287.44 150.2 287.44C151.9 287.44 153.2 286.94 153.2 286.44C153.2 285.84 151.9 285.44 150.2 285.44C148.5 285.44 147.2 285.84 147.2 286.44Z" fill="#FFB47E"/>
<path opacity="0.51" d="M257.4 329.14C255.025 329.14 253.1 328.469 253.1 327.64C253.1 326.812 255.025 326.14 257.4 326.14C259.775 326.14 261.7 326.812 261.7 327.64C261.7 328.469 259.775 329.14 257.4 329.14Z" fill="#FFB47E"/>
<path opacity="0.51" d="M294.6 283.34C292.225 283.34 290.3 282.669 290.3 281.84C290.3 281.012 292.225 280.34 294.6 280.34C296.975 280.34 298.9 281.012 298.9 281.84C298.9 282.669 296.975 283.34 294.6 283.34Z" fill="#FFB47E"/>
<path d="M313 301.54C313 301.54 322 331.44 242.5 330.64" stroke="#032021" stroke-miterlimit="10" stroke-linecap="round" stroke-linejoin="round"/>
<path d="M149.3 274.14C149.3 274.14 131.4 292.74 160.8 310.54" stroke="#032021" stroke-miterlimit="10" stroke-linecap="round" stroke-linejoin="round"/>
<path d="M258.6 341.74C261.5 340.04 263.7 338.34 265.6 336.24C267.1 334.54 265.3 331.94 263.2 332.74C260.2 333.84 257.5 335.84 255.1 337.24C254.8 324.84 248.7 335.54 245.5 340.14C244.9 330.34 238.2 327.84 236 339.24C234.2 336.34 231.8 333.14 228.2 331.64C226.7 331.04 225 331.84 224.9 333.24C224.8 334.84 224.8 334.84 225.7 338.24C224.5 333.64 212 331.34 203.3 331.24C200.8 331.24 200.2 334.84 202.6 335.54C208.1 337.24 214.5 338.94 218 340.64C227.9 346.64 242.5 346.54 254.6 343.24C256.1 342.94 257.4 342.34 258.6 341.74Z" fill="#844210"/>
<path d="M254.8 333.54C254.8 333.54 256.3 342.64 250.4 343.14" stroke="#032021" stroke-miterlimit="10" stroke-linecap="round" stroke-linejoin="round"/>
<path d="M247.8 336.84L244.5 342.14" stroke="#032021" stroke-miterlimit="10" stroke-linecap="round" stroke-linejoin="round"/>
<path d="M236.7 336.54L235.7 342.14C235.7 342.14 235.4 335.64 231.3 333.54" stroke="#032021" stroke-miterlimit="10" stroke-linecap="round" stroke-linejoin="round"/>
<path d="M225.8 338.24C225.8 338.24 223.1 331.74 205.1 331.24" stroke="#032021" stroke-miterlimit="10" stroke-linecap="round" stroke-linejoin="round"/>
<path d="M157.8 344.84C159.9 346.14 160.5 349.24 159.2 351.24C157.9 353.24 154.8 353.84 152.8 352.54C146.5 348.24 139.4 344.04 131.8 343.24C130 343.04 128 342.94 126.4 342.14C123.3 340.64 121.9 336.34 123.5 333.24C125.1 330.14 129.6 329.04 132.5 330.94C133.6 331.64 134.4 332.64 135.2 333.54C140.5 339.34 151.1 340.64 157.8 344.84Z" fill="#FF8A50"/>
<path d="M124.5 334.94C124.5 334.94 124.7 341.04 130 340.14" stroke="#032021" stroke-miterlimit="10" stroke-linecap="round" stroke-linejoin="round"/>
<path d="M236.4 367.34L236.3 367.24C235.4 366.74 234.5 366.34 233.5 365.94L168.7 336.44C165.5 334.34 161.6 333.34 157.5 333.74C148.1 334.74 141.4 343.24 142.4 352.54C143 358.04 146.2 362.64 150.6 365.24L150.7 365.34C151.7 365.94 152.8 366.44 153.9 366.84L220.3 397.34C223.1 398.74 226.3 399.34 229.6 398.94C239 397.94 245.7 389.44 244.7 380.14C244.2 374.64 240.9 369.94 236.4 367.34Z" fill="#FF8A50"/>
<path d="M229.2 384.94C229.2 384.94 226.2 394.34 233.4 395.44C240.5 396.54 243 390.44 243 390.44L229.2 384.94Z" fill="#032021"/>
<path d="M235.2 381.24C232.9 380.44 230.1 381.84 229.3 384.14C228.5 386.44 230 389.24 232.3 389.94C239.6 392.24 247.2 395.24 252.6 400.64C253.9 401.94 255.2 403.44 256.8 404.24C259.9 405.74 264.2 404.24 265.6 401.04C267 397.84 265.2 393.64 261.9 392.54C260.7 392.14 259.4 392.14 258.2 392.04C250.3 391.34 242.7 383.84 235.2 381.24Z" fill="#FF8A50"/>
<path d="M248.4 388.44C248.4 388.44 242.2 384.14 236.5 381.74" stroke="#032021" stroke-miterlimit="10" stroke-linecap="round" stroke-linejoin="round"/>
<path d="M255.3 398.84C255.3 398.84 257.3 404.44 262.4 402.34" stroke="#032021" stroke-miterlimit="10" stroke-linecap="round" stroke-linejoin="round"/>
<path d="M225.3 398.94C213.6 396.54 209.8 386.34 212.9 377.34C216 368.34 225.8 363.44 234.9 366.54" stroke="#032021" stroke-miterlimit="10" stroke-linecap="round" stroke-linejoin="round"/>
<path d="M143.2 356.04C143.2 356.04 138.6 340.84 154.4 334.44" stroke="#032021" stroke-miterlimit="10" stroke-linecap="round" stroke-linejoin="round"/>
<path d="M448.1 280.94C463.4 281.64 445.8 327.74 422.6 318.74C420.8 315.34 423.1 311.34 424.7 308.24C429.9 298.44 434.4 281.24 448.1 280.94Z" fill="#FF5920"/>
<path d="M431.8 276.94C433.3 273.64 430.4 269.84 426.8 270.54C413.9 272.94 405.1 293.04 405.7 304.94C405.5 308.04 407.4 312.74 411.2 311.64C414.1 309.74 426.9 287.94 431.8 276.94Z" fill="#FF5920"/>
<path d="M446.7 281.04C438 293.94 441.1 270.14 430.1 277.64C426.9 264.44 451.4 270.34 446.7 281.04Z" fill="#CCC200"/>
<path d="M440.1 276.74C445.6 284.74 428.7 305.74 424.6 313.84C421.7 320.64 411.2 323.54 410.8 313.74C412.7 304.84 427.2 265.44 440.1 276.74Z" fill="#FF5920"/>
<path d="M444.8 275.74C446.4 269.54 458.1 267.94 460.5 274.24C460.8 275.04 461.3 275.64 462 276.04C466.3 278.84 465 264.44 451.7 265.74C447.5 265.44 435.3 274.84 444.8 275.74Z" fill="#CCC200"/>
<path d="M441.7 279.54C440.4 293.34 432 305.34 423.8 316.54" stroke="#032021" stroke-miterlimit="10" stroke-linecap="round" stroke-linejoin="round"/>
<path d="M434 274.34C427.9 277.94 423.2 283.74 420 290.04C416.8 296.34 414.8 303.34 413.1 310.24" stroke="#032021" stroke-miterlimit="10" stroke-linecap="round" stroke-linejoin="round"/>
<path opacity="0.28" d="M450.2 290.64C449.9 292.54 449.1 294.44 447.6 295.74C447 296.34 446.2 296.74 445.4 296.54C444.7 296.34 444.3 295.74 444.1 295.04C443.9 294.34 444 293.64 444.1 292.94C444.4 290.84 444.8 288.74 445.5 286.74C446 285.14 447.9 282.74 449.7 284.44C450.9 285.64 450.4 289.24 450.2 290.64Z" fill="white"/>
<path opacity="0.28" d="M430.2 285.44C429.2 284.64 429 283.04 429.4 281.84C429.8 280.64 430.8 279.64 432 279.04C434.5 277.54 438.6 278.74 437.5 282.24C436.8 284.64 432.5 287.44 430.2 285.44Z" fill="white"/>
<path opacity="0.28" d="M425.8 275.54C424.9 276.44 424.1 277.24 423.2 278.14C422.8 278.54 422.3 279.04 421.7 279.24C421.1 279.44 420.3 279.24 420.1 278.64C420 278.34 420 278.04 420.1 277.74C420.5 275.74 422.5 274.14 424.5 274.24C425 274.24 425.5 274.44 425.8 274.84C426 275.24 425.7 275.94 425.2 275.84" fill="white"/>
<path d="M360.6 292.44C354.8 278.34 404 274.74 405.7 299.54C403.4 302.64 398.8 302.14 395.3 302.14C384.2 301.54 366.6 304.74 360.6 292.44Z" fill="#085F66"/>
<path d="M363.9 308.84C360.2 308.94 358.1 313.04 360.2 316.04C367.8 326.74 389.7 326.24 400.3 320.64C403.3 319.54 406.7 315.84 404.1 312.84C401.1 311.14 375.9 308.64 363.9 308.84Z" fill="#085F66"/>
<path d="M361.3 293.74C376.7 296.14 353.8 303.44 365.2 310.24C354.6 318.64 349.6 293.94 361.3 293.74Z" fill="#CCC200"/>
<path d="M360.2 301.54C365.1 293.14 391.3 299.64 400.4 299.84C407.8 299.64 414.9 307.84 406.2 312.34C397.2 314.44 355.4 318.04 360.2 301.54Z" fill="#085F66"/>
<path d="M357.3 297.64C351 298.84 344.6 288.84 349.3 284.04C349.9 283.44 350.2 282.74 350.3 281.94C351 276.94 338.5 284.14 345.3 295.64C346.9 299.54 360.5 306.64 357.3 297.64Z" fill="#CCC200"/>
<path d="M362 298.84C375.1 294.14 389.5 296.74 403.1 299.34" stroke="#032021" stroke-miterlimit="10" stroke-linecap="round" stroke-linejoin="round"/>
<path d="M360.6 308.04C366.5 312.04 373.7 313.84 380.8 314.14C387.9 314.44 395 313.24 402 311.84" stroke="#032021" stroke-miterlimit="10" stroke-linecap="round" stroke-linejoin="round"/>
<path opacity="0.28" d="M368.5 286.44C370.4 285.94 372.4 285.84 374.2 286.64C375 286.94 375.8 287.54 375.9 288.34C376 289.04 375.6 289.74 375.1 290.14C374.5 290.54 373.9 290.84 373.2 291.04C371.2 291.64 369.1 292.14 367 292.44C365.3 292.64 362.4 291.94 363.2 289.64C363.7 287.94 367.1 286.84 368.5 286.44Z" fill="white"/>
<path opacity="0.28" d="M372.3 306.74C371.9 308.04 370.7 308.84 369.4 308.94C368.1 309.04 366.8 308.54 365.7 307.84C363.3 306.24 362.6 301.94 366.3 301.54C368.8 301.14 373.1 303.84 372.3 306.74Z" fill="white"/>
<path opacity="0.28" d="M365.2 314.94C366.3 315.34 367.5 315.74 368.6 316.24C369.2 316.44 369.8 316.64 370.2 317.14C370.6 317.64 370.8 318.34 370.3 318.84C370.1 319.04 369.8 319.14 369.5 319.24C367.5 319.74 365.2 318.64 364.4 316.74C364.2 316.24 364.1 315.74 364.4 315.34C364.7 314.94 365.5 314.94 365.6 315.44" fill="white"/>
<path d="M432.3 367.34C418.8 378.94 400.3 384.84 382.6 383.14C377.2 382.64 371.7 381.44 366.4 380.24C357.3 378.24 348 376.14 338.8 377.64L338.6 376.54C348 375.04 357.5 377.14 366.7 379.14C372 380.34 377.4 381.54 382.8 382.04C400.5 383.74 419.1 377.74 432.3 365.94L433 366.74C432.8 366.94 432.6 367.14 432.3 367.34Z" fill="#CCC200"/>
<path d="M355.8 378.44C355 378.24 354.1 378.74 353.4 379.24C351.4 380.94 350.2 383.24 348.5 385.14C346.1 387.94 342.7 389.84 339 390.54C340.5 389.84 340.5 387.64 341 386.04C341.9 383.24 344.1 380.84 346.8 379.64C349.6 378.44 352.9 377.84 355.8 378.44Z" fill="#CCC200"/>
<path d="M360.6 378.14C359.7 377.94 359.2 377.14 358.8 376.34C357.8 373.94 357.7 371.34 357 368.84C356 365.24 353.8 362.04 350.8 359.84C351.9 361.14 350.9 363.14 350.7 364.74C350.3 367.64 351.2 370.74 353.1 373.14C355 375.44 357.8 377.44 360.6 378.14Z" fill="#CCC200"/>
<path d="M377.7 381.94C376.9 381.54 376.7 380.54 376.6 379.64C376.4 377.04 377.2 374.54 377.3 372.04C377.6 368.34 376.5 364.54 374.4 361.54C375 363.14 373.5 364.64 372.7 366.14C371.3 368.74 371.3 372.04 372.2 374.84C373.3 377.54 375.2 380.24 377.7 381.94Z" fill="#CCC200"/>
<path d="M363.1 396.74C363 395.84 363.7 395.14 364.3 394.54C366.3 392.94 368.8 392.14 371 390.84C374.2 388.94 376.7 385.94 378 382.44C377 383.84 374.9 383.44 373.2 383.64C370.3 384.04 367.6 385.74 365.8 388.14C364.2 390.64 363.1 393.74 363.1 396.74Z" fill="#CCC200"/>
<path d="M396.5 382.74C395.8 382.24 395.7 381.24 395.7 380.34C395.8 377.74 396.8 375.34 397.3 372.84C398 369.24 397.4 365.34 395.6 362.04C396 363.64 394.3 365.04 393.4 366.44C391.7 368.94 391.3 372.04 392 374.94C392.6 377.94 394.2 380.84 396.5 382.74Z" fill="#CCC200"/>
<path d="M393.8 403.44C393.2 402.84 393.1 401.84 393.2 401.04C393.5 398.54 394.8 396.14 395.5 393.74C396.5 390.14 396.3 386.24 394.8 382.84C395.1 384.54 393.2 385.74 392.2 387.04C390.3 389.34 389.6 392.44 390 395.44C390.4 398.24 391.7 401.34 393.8 403.44Z" fill="#CCC200"/>
<path d="M365.9 379.44C365 379.44 364.4 380.24 363.9 380.94C362.5 383.14 362.1 385.74 361 388.04C359.5 391.44 356.8 394.34 353.6 396.04C354.9 394.94 354.2 392.84 354.2 391.14C354.2 388.14 355.6 385.24 357.8 383.24C360 381.24 362.9 379.74 365.9 379.44Z" fill="#CCC200"/>
<path d="M366.1 379.04C365.5 378.44 365.5 377.44 365.6 376.54C366 374.04 367.4 371.74 368.1 369.34C369.2 365.84 369.1 361.94 367.8 358.44C368 360.14 366.1 361.24 365 362.54C363 364.74 362.2 367.84 362.5 370.84C362.8 373.84 364.1 376.94 366.1 379.04Z" fill="#CCC200"/>
<path d="M381.3 402.34C380.7 401.74 380.7 400.74 380.8 399.84C381.2 397.34 382.6 395.04 383.3 392.64C384.4 389.14 384.3 385.24 383 381.74C383.2 383.44 381.3 384.54 380.2 385.84C378.2 388.04 377.4 391.14 377.7 394.14C378 397.04 379.3 400.14 381.3 402.34Z" fill="#CCC200"/>
<path d="M384.3 382.54C383.7 381.94 383.7 380.94 383.8 380.04C384.2 377.54 385.6 375.24 386.3 372.84C387.4 369.34 387.3 365.44 386 361.94C386.2 363.64 384.3 364.74 383.2 366.04C381.2 368.24 380.4 371.34 380.7 374.34C381 377.24 382.2 380.34 384.3 382.54Z" fill="#CCC200"/>
<path d="M443.2 382.04C425.4 385.24 406.1 380.64 391.5 369.84C387.1 366.54 383 362.74 379.1 358.94C372.4 352.54 365.4 345.94 356.8 342.34L357.2 341.24C366 344.84 373.1 351.54 379.9 358.04C383.8 361.74 387.8 365.64 392.2 368.84C406.5 379.54 425.5 383.94 443 380.84L443.2 382.04Z" fill="#CCC200"/>
<path d="M370.9 351.94C370.3 351.34 369.3 351.34 368.4 351.44C365.9 351.84 363.6 353.24 361.2 353.94C357.7 355.04 353.7 354.94 350.3 353.64C352 353.84 353.1 351.94 354.4 350.84C356.6 348.94 359.7 348.04 362.7 348.34C365.7 348.64 368.8 349.94 370.9 351.94Z" fill="#CCC200"/>
<path d="M375.3 354.14C374.7 353.54 374.6 352.54 374.7 351.74C375 349.24 376.3 346.94 377.1 344.44C378.1 340.84 377.9 336.94 376.5 333.54C376.7 335.24 374.9 336.44 373.8 337.64C371.9 339.94 371.1 343.04 371.5 346.04C371.9 349.04 373.2 352.04 375.3 354.14Z" fill="#CCC200"/>
<path d="M387.9 366.24C387.5 365.44 387.8 364.54 388.1 363.74C389.2 361.44 391.2 359.74 392.7 357.64C394.8 354.64 395.9 350.84 395.7 347.14C395.4 348.84 393.3 349.34 391.8 350.24C389.3 351.74 387.5 354.44 386.9 357.44C386.4 360.24 386.6 363.54 387.9 366.24Z" fill="#CCC200"/>
<path d="M367.7 371.34C368.1 370.54 369 370.24 369.9 370.14C372.4 369.74 375 370.44 377.6 370.44C381.3 370.54 385 369.24 387.9 366.94C386.4 367.64 384.7 366.14 383.2 365.44C380.5 364.24 377.3 364.34 374.5 365.44C371.8 366.64 369.2 368.74 367.7 371.34Z" fill="#CCC200"/>
<path d="M403.6 376.74C403.3 375.94 403.7 375.04 404.1 374.34C405.5 372.24 407.7 370.64 409.4 368.74C411.9 365.94 413.4 362.34 413.6 358.64C413.1 360.24 410.9 360.54 409.4 361.24C406.7 362.44 404.7 364.94 403.7 367.74C402.7 370.54 402.6 373.84 403.6 376.74Z" fill="#CCC200"/>
<path d="M390.6 392.94C390.4 392.14 390.8 391.24 391.4 390.54C393 388.54 395.3 387.24 397.2 385.54C399.9 383.04 401.8 379.54 402.3 375.94C401.7 377.54 399.5 377.54 397.9 378.14C395.1 379.14 392.8 381.44 391.6 384.14C390.4 386.84 389.9 390.04 390.6 392.94Z" fill="#CCC200"/>
<path d="M379.1 357.94C378.3 357.54 377.4 357.84 376.6 358.14C374.3 359.24 372.5 361.24 370.4 362.74C367.4 364.84 363.6 365.94 359.9 365.64C361.6 365.34 362.1 363.24 363 361.74C364.6 359.24 367.3 357.44 370.2 356.94C373.1 356.44 376.4 356.74 379.1 357.94Z" fill="#CCC200"/>
<path d="M379.5 357.84C379.3 357.04 379.8 356.14 380.3 355.44C382 353.44 384.3 352.24 386.2 350.54C389 348.14 390.9 344.74 391.6 341.04C390.9 342.54 388.7 342.54 387.1 343.04C384.3 343.94 381.9 346.14 380.6 348.84C379.4 351.64 378.9 354.94 379.5 357.84Z" fill="#CCC200"/>
<path d="M380.4 385.44C380.2 384.64 380.7 383.74 381.2 383.04C382.9 381.04 385.2 379.84 387.1 378.14C389.9 375.74 391.8 372.34 392.5 368.64C391.8 370.14 389.6 370.14 388 370.64C385.2 371.54 382.8 373.74 381.5 376.44C380.4 379.24 379.8 382.54 380.4 385.44Z" fill="#CCC200"/>
<path d="M393.2 370.14C393 369.34 393.5 368.44 394 367.74C395.7 365.74 398 364.54 399.9 362.84C402.7 360.44 404.6 357.04 405.3 353.34C404.6 354.84 402.4 354.84 400.8 355.34C398 356.24 395.6 358.44 394.3 361.14C393.2 363.94 392.7 367.24 393.2 370.14Z" fill="#CCC200"/>
<path d="M101.9 339.54L109 348.94C111.5 352.34 110.3 357.24 106.4 358.84C100.3 361.44 89 364.34 69.2 364.34C49.3 364.34 38.3 361.44 32.4 358.84C28.7 357.14 27.4 352.54 29.7 349.14L37.5 337.84L101.9 339.54Z" fill="#8CC2F2"/>
<path d="M69.5001 303.64C45.4205 303.64 25.9001 296.925 25.9001 288.64C25.9001 280.356 45.4205 273.64 69.5001 273.64C93.5797 273.64 113.1 280.356 113.1 288.64C113.1 296.925 93.5797 303.64 69.5001 303.64Z" fill="#032021"/>
<path d="M86.1 276.04C86.2 282.44 81.8 288.44 76 291.14C70.2 293.94 63.4 293.84 57.3 292.04C52.6 290.64 48.1 288.04 44.9 284.34C41.7 280.64 39.9 275.54 40.6 270.64C41.3 265.74 44.7 261.24 49.4 259.74C56.6 257.54 62.8 264.34 70.2 263.64C78.2 262.84 85.9 266.74 86.1 276.04Z" fill="#FF5920"/>
<path opacity="0.28" d="M50.3 269.84C49 270.84 48 272.14 46.9 273.34C46.6 273.74 46.2 274.14 45.8 274.34C44.6 274.94 43 273.94 42.6 272.64C42.2 271.34 42.7 269.94 43.5 268.74C45.1 266.34 48 264.64 51 264.74C51.8 264.74 52.7 264.84 53.4 265.34C56.8 267.54 51.6 268.74 50.3 269.84Z" fill="white"/>
<path d="M75.3 260.34C73.3 260.64 71.4 261.14 69.6 261.94C72.6 262.44 75 265.24 75 268.24C72.8 266.44 69.9 265.34 67 265.34C67.5 266.74 67.4 268.34 66.7 269.64C66.2 268.04 65.3 266.44 63.9 265.44C62.5 264.44 60.5 264.14 59 264.94C57.8 265.54 57 266.84 56.3 267.94C56.3 266.14 57.2 264.34 58.6 263.24C56.3 262.94 54 263.34 51.9 264.24C52 262.84 53.5 261.94 54.9 261.44C56.9 260.84 58.9 260.64 61 260.84C59 259.64 56.8 258.74 54.5 258.24C56.1 258.64 58.2 257.84 60 258.24C61.8 258.64 63.3 259.64 65.1 260.14C68.3 261.34 71.8 259.44 75.3 260.34Z" fill="#CCC200"/>
<path d="M81.7 280.54C77.4 286.24 70.5 289.84 63.4 290.14" stroke="#032021" stroke-miterlimit="10" stroke-linecap="round" stroke-linejoin="round"/>
<path d="M82.3 267.04C82.3 267.04 71.1 278.04 56.6 276.04C56.6 276.04 73.7 294.44 86 271.84L82.3 267.04Z" fill="#032021"/>
<path d="M105.1 273.74C108.8 278.94 108.6 286.34 105.5 291.94C102.4 297.54 96.7 301.34 90.6 303.34C85.9 304.84 80.8 305.34 76 304.14C71.2 302.94 66.8 299.84 64.6 295.44C62.4 291.04 62.6 285.34 65.6 281.44C70.2 275.54 79.2 277.54 84.9 272.74C91.2 267.44 99.7 266.14 105.1 273.74Z" fill="#FF5920"/>
<path opacity="0.28" d="M96.9 278.74C96.4 277.14 95.6 275.74 94.8 274.34C94.6 273.94 94.3 273.44 94.2 272.94C94 271.54 95.5 270.44 96.9 270.54C98.3 270.64 99.4 271.64 100.2 272.74C101.9 275.14 102.4 278.34 101.4 281.14C101.1 281.94 100.7 282.64 100 283.14C96.8 285.64 97.4 280.34 96.9 278.74Z" fill="white"/>
<path d="M87.3 267.04C85.8 268.44 84.6 269.94 83.5 271.64C86.2 270.34 89.8 271.24 91.5 273.74C88.6 273.54 85.6 274.34 83.2 275.94C84.4 276.74 85.3 278.24 85.4 279.64C84 278.64 82.4 277.84 80.7 277.84C79 277.84 77.2 278.74 76.4 280.24C75.8 281.44 75.8 282.84 75.9 284.24C74.9 282.74 74.6 280.84 75.1 279.04C73.1 280.14 71.4 281.74 70.2 283.64C69.4 282.44 70.2 280.84 71.1 279.64C72.4 278.04 74 276.64 75.8 275.74C73.5 275.84 71.2 276.34 69 277.24C70.5 276.64 71.8 274.84 73.5 274.14C75.2 273.44 77 273.34 78.8 272.84C82.1 271.84 83.9 268.34 87.3 267.04Z" fill="#CCC200"/>
<path d="M74.3 291.34C73.8 297.74 68.9 303.24 63 305.54C57 307.84 50.2 307.14 44.3 304.74C39.7 302.94 35.5 300.04 32.6 296.04C29.7 292.04 28.3 286.84 29.5 282.04C30.6 277.24 34.4 273.04 39.2 271.94C46.5 270.34 52.1 277.64 59.6 277.64C67.6 277.64 75 282.04 74.3 291.34Z" fill="#FF5920"/>
<path opacity="0.28" d="M39.2 282.14C37.8 283.04 36.7 284.24 35.5 285.34C35.1 285.74 34.8 286.04 34.3 286.24C33 286.74 31.6 285.64 31.3 284.34C31 283.04 31.7 281.64 32.5 280.54C34.3 278.24 37.3 276.84 40.3 277.14C41.1 277.24 41.9 277.44 42.6 277.94C45.9 280.34 40.6 281.24 39.2 282.14Z" fill="white"/>
<path d="M64.9 274.84C62.9 274.94 60.9 275.34 59.1 275.94C62 276.64 64.2 279.64 63.9 282.64C61.8 280.64 59 279.34 56.1 279.04C56.5 280.44 56.2 282.14 55.4 283.34C55 281.64 54.2 280.04 52.9 278.94C51.6 277.84 49.7 277.34 48.1 278.04C46.8 278.54 46 279.74 45.2 280.84C45.3 279.04 46.4 277.34 47.9 276.34C45.7 275.84 43.3 276.04 41.2 276.74C41.4 275.34 43 274.54 44.4 274.24C46.4 273.84 48.5 273.84 50.5 274.24C48.6 272.84 46.5 271.74 44.3 271.04C45.9 271.54 48 271.04 49.8 271.54C51.6 272.04 53 273.24 54.7 273.94C57.9 275.24 61.5 273.64 64.9 274.84Z" fill="#CCC200"/>
<path d="M64.9 278.04C64.9 278.04 77.5 282.34 72.1 299.44" stroke="#032021" stroke-miterlimit="10" stroke-linecap="round" stroke-linejoin="round"/>
<path d="M25.9001 286.44C25.9001 286.44 69.5001 316.24 113.1 286.14C115.7 292.04 117.2 298.64 117.2 305.54C117.2 331.84 95.9001 353.14 69.6001 353.14C43.3001 353.14 22.0001 331.84 22.0001 305.54C21.9001 298.74 23.4001 292.34 25.9001 286.44Z" fill="#8CC2F2"/>
<path d="M101.9 339.54C101.9 339.54 92.2 347.44 61.9 346.24C61.9 346.24 77.6 351.04 103.9 342.14L101.9 339.54Z" fill="#032021"/>
<path d="M29.3 357.04C29.3 357.04 48.5 369.84 92.8 362.14" stroke="#032021" stroke-miterlimit="10" stroke-linecap="round" stroke-linejoin="round"/>
<path opacity="0.28" d="M42.9001 315.44C43.1001 319.44 44.3 323.24 44.8 327.24C45 328.84 45.0001 330.74 43.9001 331.94C43.3001 332.54 42.4001 332.94 41.5001 333.04C37.0001 333.94 32.6001 330.64 30.6001 326.54C28.6001 322.44 28.6 317.74 28.8 313.14C28.9 309.44 29.4 305.24 32.3 302.94C34 301.54 36.3001 301.04 38.5001 300.64C41.4001 300.14 46.4001 300.14 46.1001 304.14C46.0001 305.44 44.3 307.04 43.8 308.24C43 310.54 42.8001 313.04 42.9001 315.44Z" fill="white"/>
<path opacity="0.28" d="M41.7001 345.94C45.3001 345.94 54.1 348.14 51.3 353.14C42.2 358.14 30.3001 346.54 41.7001 345.94Z" fill="white"/>
</svg>
