<svg width="74" height="80" viewBox="0 0 74 80" fill="none" xmlns="http://www.w3.org/2000/svg">
<path d="M61.1115 1.17188H12.6603C11.247 1.17188 10.1012 2.31766 10.1012 3.73094V32.9039C10.1012 34.3172 11.247 35.463 12.6603 35.463H31.7521C32.3162 35.463 32.8417 35.7492 33.1476 36.2231L36.1542 40.88C36.4799 41.3847 37.2171 41.3872 37.5465 40.8848L40.6095 36.2133C40.9165 35.745 41.4387 35.463 41.9987 35.463H61.1113C62.5246 35.463 63.6704 34.3172 63.6704 32.9039V3.73094C63.6704 2.31766 62.5248 1.17188 61.1115 1.17188Z" fill="#FFE5C2"/>
<path d="M61.1115 1.17188H57.4838V27.9486C57.4838 29.3619 56.338 30.5077 54.9248 30.5077H10.1013V32.9041C10.1013 34.3173 11.2471 35.4631 12.6604 35.4631H31.7523C32.3163 35.4631 32.8418 35.7494 33.1477 36.2233L36.1543 40.8802C36.4801 41.3848 37.2173 41.3873 37.5466 40.885L40.6096 36.2134C40.9166 35.7452 41.4388 35.4631 41.9988 35.4631H61.1115C62.5248 35.4631 63.6705 34.3173 63.6705 32.9041V3.73094C63.6704 2.31766 62.5248 1.17188 61.1115 1.17188Z" fill="#FED2A4"/>
<path d="M47.8613 10.1284C45.4524 10.1284 43.3697 11.5223 42.3737 13.547C41.3774 11.5223 39.2947 10.1284 36.8858 10.1284C34.4769 10.1284 32.3943 11.5223 31.3982 13.547C30.4021 11.5223 28.3194 10.1284 25.9105 10.1284C22.5343 10.1284 19.7972 12.8654 19.7972 16.2417V22.2412C19.7972 24.5967 21.7068 26.5062 24.0622 26.5062H49.7096C52.0651 26.5062 53.9746 24.5967 53.9746 22.2412V16.2417C53.9746 12.8654 51.2376 10.1284 47.8613 10.1284Z" fill="#EA9B58"/>
<path d="M49.0121 10.2381V17.3543C49.0121 19.7098 47.1026 21.6193 44.7471 21.6193H19.7971V22.2412C19.7971 24.5967 21.7066 26.5062 24.0621 26.5062H49.7095C52.0649 26.5062 53.9745 24.5967 53.9745 22.2412V16.2417C53.9746 13.259 51.8379 10.7767 49.0121 10.2381Z" fill="#D88A55"/>
<path d="M24.6819 70.8813C24.6819 68.125 26.0116 65.6738 28.0628 64.1344C27.082 59.9736 23.3478 56.8758 18.8875 56.8758H10.6011C5.39344 56.8758 1.17188 61.0974 1.17188 66.305V77.167C1.17188 78.0844 1.91563 78.8281 2.83297 78.8281H24.6819V70.8813Z" fill="#FFE177"/>
<path d="M24.6819 70.8813C24.6819 68.1247 26.0117 65.6731 28.0634 64.1339C27.2822 60.8224 24.7552 58.1859 21.5063 57.2483V72.2667C21.5063 73.1841 20.7625 73.9278 19.8452 73.9278H1.17188V77.167C1.17188 78.0844 1.91563 78.8281 2.83297 78.8281H24.6819V70.8813Z" fill="#FFD15B"/>
<path d="M63.1708 56.8758H54.8844C50.4241 56.8758 46.6899 59.9736 45.7091 64.1344C47.7605 65.6738 49.09 68.125 49.09 70.8813V78.8281H70.939C71.8563 78.8281 72.6 78.0844 72.6 77.167V66.305C72.6 61.0974 68.3785 56.8758 63.1708 56.8758Z" fill="#FE646F"/>
<path d="M67.6167 57.9889V72.2667C67.6167 73.184 66.8729 73.9278 65.9556 73.9278H49.09V78.8281H70.9389C71.8562 78.8281 72.6 78.0844 72.6 77.167V66.305C72.6 62.7053 70.5822 59.5776 67.6167 57.9889Z" fill="#FD4755"/>
<path d="M49.2463 78.8281V70.8813C49.2463 66.1388 45.4018 62.2941 40.6591 62.2941H33.1127C28.3702 62.2941 24.5255 66.1386 24.5255 70.8813V78.8281H49.2463Z" fill="#62DBFB"/>
<path d="M44.331 63.1193V72.2668C44.331 73.1841 43.5872 73.9279 42.6699 73.9279H24.5256V78.8282H49.2463V70.8813C49.2463 67.4529 47.2363 64.4957 44.331 63.1193Z" fill="#01D0FB"/>
<path d="M14.7442 57.3536C18.9971 57.3536 22.4448 53.9059 22.4448 49.653C22.4448 45.4 18.9971 41.9523 14.7442 41.9523C10.4913 41.9523 7.04358 45.4 7.04358 49.653C7.04358 53.9059 10.4913 57.3536 14.7442 57.3536Z" fill="#FFCEBF"/>
<path d="M59.0276 57.3536C63.2806 57.3536 66.7283 53.9059 66.7283 49.653C66.7283 45.4 63.2806 41.9523 59.0276 41.9523C54.7747 41.9523 51.327 45.4 51.327 49.653C51.327 53.9059 54.7747 57.3536 59.0276 57.3536Z" fill="#FFCEBF"/>
<path d="M59.675 41.9816C60.9645 43.3584 61.7556 45.208 61.7556 47.2433C61.7556 51.4963 58.3079 54.9439 54.055 54.9439C53.8367 54.9439 53.6212 54.9327 53.4075 54.9148C54.8126 56.415 56.81 57.3538 59.0275 57.3538C63.2804 57.3538 66.7281 53.9061 66.7281 49.6531C66.7282 45.6183 63.6247 42.3106 59.675 41.9816Z" fill="#FFB09E"/>
<path d="M15.3918 41.9816C16.6813 43.3584 17.4724 45.208 17.4724 47.2433C17.4724 51.4963 14.0247 54.9439 9.77177 54.9439C9.55349 54.9439 9.33802 54.9327 9.12427 54.9148C10.5294 56.415 12.5268 57.3538 14.7443 57.3538C18.9972 57.3538 22.4449 53.9061 22.4449 49.6531C22.4449 45.6183 19.3415 42.3106 15.3918 41.9816Z" fill="#FFB09E"/>
<path d="M36.8859 62.6322C40.759 62.6322 43.8989 59.4924 43.8989 55.6192C43.8989 51.7461 40.759 48.6063 36.8859 48.6063C33.0127 48.6063 29.8729 51.7461 29.8729 55.6192C29.8729 59.4924 33.0127 62.6322 36.8859 62.6322Z" fill="#FFCEBF"/>
<path d="M37.31 48.6203C38.3339 49.8392 38.9515 51.4111 38.9515 53.1276C38.9515 57.0008 35.8117 60.1406 31.9387 60.1406C31.7962 60.1406 31.655 60.1351 31.5146 60.1267C32.8011 61.6581 34.7293 62.6323 36.8859 62.6323C40.759 62.6323 43.8989 59.4925 43.8989 55.6194C43.8989 51.8887 40.9854 48.8397 37.31 48.6203Z" fill="#FFB09E"/>
<path d="M12.6603 36.6348H31.7521C31.919 36.6348 32.0728 36.7186 32.1632 36.8588L35.1698 41.5156C35.5385 42.087 36.1649 42.4295 36.8451 42.4319H36.8523C37.5296 42.4319 38.1553 42.0941 38.5268 41.5273L41.5896 36.8558C41.6804 36.7175 41.8334 36.6348 41.9988 36.6348H61.1115C63.1687 36.6348 64.8424 34.9613 64.8424 32.9039V3.73094C64.8424 1.67359 63.1687 0 61.1115 0H12.6603C10.6031 0 8.92932 1.67359 8.92932 3.73094V11.2216C8.92932 11.8688 9.45385 12.3934 10.1012 12.3934C10.7485 12.3934 11.2731 11.8688 11.2731 11.2216V3.73094C11.2731 2.96594 11.8953 2.34375 12.6603 2.34375H61.1115C61.8765 2.34375 62.4987 2.96594 62.4987 3.73094V32.9041C62.4987 33.6691 61.8765 34.2913 61.1115 34.2913H41.9988C41.0407 34.2913 40.1551 34.7697 39.6296 35.5708L36.8543 39.8036L34.1323 35.5877C33.6082 34.7758 32.7185 34.2913 31.7523 34.2913H12.6603C11.8953 34.2913 11.2731 33.6691 11.2731 32.9041V17.0356C11.2731 16.3884 10.7485 15.8638 10.1012 15.8638C9.45385 15.8638 8.92932 16.3884 8.92932 17.0356V32.9041C8.92932 34.9613 10.6031 36.6348 12.6603 36.6348Z" fill="black"/>
<path d="M49.7096 27.6783C52.7077 27.6783 55.1466 25.2394 55.1466 22.2414V16.2419C55.1466 12.2248 51.8785 8.9567 47.8615 8.9567H47.8613C45.7121 8.9567 43.7351 9.87795 42.3736 11.4444C41.0124 9.87779 39.0354 8.95654 36.886 8.95654C34.7366 8.95654 32.7596 9.87779 31.3983 11.4442C30.0368 9.87795 28.0597 8.95654 25.9105 8.95654C21.8935 8.95654 18.6254 12.2247 18.6254 16.2417V22.2412C18.6254 25.2392 21.0643 27.6781 24.0624 27.6781H49.7096V27.6783ZM20.9691 22.2412V16.2417C20.9691 13.517 23.186 11.3003 25.9107 11.3003C27.7227 11.3003 29.3526 12.2678 30.2265 13.8397V17.635C30.2265 18.2822 30.751 18.8069 31.3983 18.8069C32.0457 18.8069 32.5702 18.2822 32.5702 17.635V13.8397C33.444 12.2678 35.0738 11.3003 36.886 11.3003C38.6982 11.3003 40.328 12.2678 41.2018 13.8397V17.635C41.2018 18.2822 41.7263 18.8069 42.3736 18.8069C43.021 18.8069 43.5455 18.2822 43.5455 17.635V13.8397C44.4194 12.2678 46.0493 11.3003 47.8615 11.3003C50.5861 11.3003 52.8029 13.517 52.8029 16.2417V22.2412C52.8029 23.9469 51.4152 25.3344 49.7096 25.3344H24.0624C22.3568 25.3345 20.9691 23.9469 20.9691 22.2412Z" fill="black"/>
<path d="M72.6 69.1197C73.2473 69.1197 73.7719 68.595 73.7719 67.9478V66.305C73.7719 61.1895 70.1298 56.9089 65.3028 55.9194C66.9067 54.3131 67.9 52.097 67.9 49.6531C67.9 44.7608 63.9198 40.7806 59.0277 40.7806C54.1355 40.7806 50.1552 44.7608 50.1552 49.6531C50.1552 52.0975 51.1488 54.3141 52.7533 55.9203C49.3369 56.6183 46.4636 58.9645 45.1089 62.2003C44.3648 61.8174 43.5664 61.5267 42.7272 61.345C44.1755 59.8678 45.0706 57.8466 45.0706 55.6194C45.0706 51.1063 41.3989 47.4345 36.8858 47.4345C32.3727 47.4345 28.7009 51.1063 28.7009 55.6194C28.7009 57.8466 29.5962 59.8677 31.0444 61.345C30.2053 61.5269 29.4067 61.8175 28.6627 62.2003C27.308 58.9645 24.4348 56.6183 21.0184 55.9203C22.6228 54.3141 23.6166 52.0975 23.6166 49.6531C23.6166 44.7608 19.6364 40.7806 14.7442 40.7806C9.85203 40.7806 5.87187 44.7606 5.87187 49.653C5.87187 52.0969 6.86516 54.313 8.46922 55.9192C3.64203 56.9086 0 61.1894 0 66.305V66.4528C0 67.1 0.524531 67.6247 1.17188 67.6247C1.81922 67.6247 2.34375 67.1 2.34375 66.4528V66.305C2.34375 61.7519 6.04797 58.0477 10.6011 58.0477H11.878C12.778 58.3558 13.7416 58.5256 14.7445 58.5256C15.7475 58.5256 16.7111 58.356 17.6111 58.0477H18.8877C22.4191 58.0477 25.5239 60.2786 26.6761 63.5552C24.6416 65.345 23.3539 67.9649 23.3539 70.8811V77.6563H2.83297C2.56313 77.6563 2.34375 77.4367 2.34375 77.167V72.2667C2.34375 71.6195 1.81922 71.0949 1.17188 71.0949C0.524531 71.0949 0 71.6195 0 72.2667V77.167C0 78.7292 1.27094 80 2.83297 80H70.9391C72.5011 80 73.772 78.7291 73.772 77.167V73.7617C73.772 73.1145 73.2475 72.5899 72.6002 72.5899C71.9528 72.5899 71.4283 73.1145 71.4283 73.7617V77.167C71.4283 77.4369 71.2089 77.6563 70.9391 77.6563H50.4181V70.8813C50.4181 67.9649 49.1306 65.345 47.0959 63.5552C48.2481 60.2786 51.353 58.0477 54.8842 58.0477H56.1611C57.0611 58.3558 58.0247 58.5256 59.0277 58.5256C60.0306 58.5256 60.9942 58.356 61.8942 58.0477H63.1708C67.7241 58.0477 71.4283 61.7519 71.4283 66.305V67.9478C71.4281 68.595 71.9528 69.1197 72.6 69.1197ZM8.21563 49.653C8.21563 46.053 11.1444 43.1242 14.7444 43.1242C18.3442 43.1242 21.273 46.053 21.273 49.653C21.273 53.253 18.3442 56.1817 14.7444 56.1817C11.1444 56.1817 8.21563 53.253 8.21563 49.653ZM36.8859 49.7783C40.1067 49.7783 42.727 52.3986 42.727 55.6194C42.727 58.8402 40.1067 61.4605 36.8859 61.4605C33.6652 61.4605 31.0448 58.8402 31.0448 55.6194C31.0448 52.3986 33.6652 49.7783 36.8859 49.7783ZM48.0744 70.8813V77.6563H25.6975V70.8813C25.6975 66.7925 29.0241 63.466 33.1128 63.466H34.5619C35.2992 63.6847 36.0788 63.8041 36.8861 63.8041C37.6934 63.8041 38.473 63.6847 39.2103 63.466H40.6594C44.7478 63.466 48.0744 66.7925 48.0744 70.8813ZM52.4989 49.653C52.4989 46.053 55.4277 43.1242 59.0277 43.1242C62.6275 43.1242 65.5562 46.053 65.5562 49.653C65.5562 53.253 62.6275 56.1817 59.0277 56.1817C55.4277 56.1817 52.4989 53.253 52.4989 49.653Z" fill="black"/>
</svg>
