<svg width="200" height="200" viewBox="0 0 200 200" fill="none" xmlns="http://www.w3.org/2000/svg">
<path d="M63.6243 24.8865C71.5581 26.2182 79.6421 23.5915 85.2779 17.8508C93.3644 9.61388 106.636 9.61388 114.722 17.8508C120.358 23.5915 128.442 26.2182 136.376 24.8865C147.759 22.9758 158.496 30.7764 160.196 42.1933C161.382 50.1503 166.378 57.027 173.579 60.613C183.912 65.7584 188.013 78.3799 182.678 88.616C178.96 95.7499 178.96 104.25 182.678 111.384C188.013 121.62 183.912 134.242 173.579 139.387C166.378 142.973 161.382 149.85 160.196 157.807C158.496 169.224 147.759 177.024 136.376 175.113C128.442 173.782 120.358 176.409 114.722 182.149C106.636 190.386 93.3644 190.386 85.2779 182.149C79.6421 176.409 71.5581 173.782 63.6243 175.113C52.2407 177.024 41.5041 169.224 39.8035 157.807C38.6183 149.85 33.6221 142.973 26.4209 139.387C16.0882 134.242 11.9872 121.62 17.3221 111.384C21.0403 104.25 21.0403 95.7499 17.3221 88.616C11.9872 78.3799 16.0882 65.7584 26.4209 60.613C33.6221 57.027 38.6183 50.1503 39.8035 42.1933C41.5041 30.7764 52.2407 22.9758 63.6243 24.8865Z" fill="#F76B2D" stroke="#6B430E" stroke-width="4"/>
</svg>
