<svg width="80" height="80" viewBox="0 0 80 80" fill="none" xmlns="http://www.w3.org/2000/svg">
<g clip-path="url(#clip0_608_506)">
<path d="M49.6836 37.0141L33.8084 45.8395L22.7736 40.619L15.1514 37.0141L20.3442 13.5045L24.1157 12.6112L35.2544 9.96979L46.7321 13.5045L49.6836 37.0141Z" fill="#C8EFFE"/>
<path d="M24.1157 12.6112L22.7736 40.619L15.1514 37.0141L20.3442 13.5045L24.1157 12.6112Z" fill="#99E6FC"/>
<path d="M66.8799 47.7025H60.7723V33.5956C60.7723 28.4862 64.9144 24.3441 70.0238 24.3441H72.4929C73.2304 24.3441 73.8282 24.9419 73.8282 25.6794V29.1165C73.8282 29.854 73.2304 30.4518 72.4929 30.4518H70.0238C68.2874 30.4518 66.8799 31.8595 66.8799 33.5958V47.7025Z" fill="#7A8C98"/>
<path d="M72.6562 24.3548C67.7502 24.5823 63.8414 28.6331 63.8414 33.5955V47.7025H60.7723V33.5955C60.7723 28.4865 64.9149 24.344 70.0238 24.344H72.4928C72.5478 24.344 72.6028 24.3471 72.6562 24.3548Z" fill="#596C76"/>
<path d="M43.2953 69.0177H71.2115C74.0131 69.0177 76.2841 66.7465 76.2841 63.9451V46.1207C76.2841 44.2352 74.9734 42.6033 73.1323 42.1965L49.6833 37.0139H22.6531" fill="#9BE69D"/>
<path d="M76.2835 54.5728H72.4271C70.7246 54.5728 69.3445 53.1927 69.3445 51.4902V48.5589H76.2835V54.5728Z" fill="#C8EFFE"/>
<path d="M61.5678 78.8281C67.844 78.8281 72.932 73.7402 72.932 67.4639C72.932 61.1876 67.844 56.0997 61.5678 56.0997C55.2915 56.0997 50.2036 61.1876 50.2036 67.4639C50.2036 73.7402 55.2915 78.8281 61.5678 78.8281Z" fill="#7A8C98"/>
<path d="M63.2006 78.7111C62.6678 78.7889 62.1211 78.8286 61.5668 78.8286C55.2913 78.8286 50.2036 73.7395 50.2036 67.4639C50.2036 61.1884 55.2912 56.0993 61.5668 56.0993C62.1211 56.0993 62.6678 56.139 63.2006 56.2168C57.6978 57.0077 53.4682 61.7426 53.4682 67.4639C53.4682 73.1853 57.6978 77.9201 63.2006 78.7111Z" fill="#596C76"/>
<path d="M61.5677 72.6642C64.4398 72.6642 66.7681 70.3359 66.7681 67.4639C66.7681 64.5918 64.4398 62.2635 61.5677 62.2635C58.6957 62.2635 56.3674 64.5918 56.3674 67.4639C56.3674 70.3359 58.6957 72.6642 61.5677 72.6642Z" fill="#E8EDF2"/>
<path d="M63.5499 72.2736C62.9392 72.5254 62.2688 72.6643 61.5681 72.6643C58.696 72.6643 56.3674 70.3359 56.3674 67.4639C56.3674 64.5918 58.6959 62.2632 61.5681 62.2632C62.2688 62.2632 62.9392 62.4022 63.5499 62.6542C61.6612 63.4329 60.3313 65.2942 60.3313 67.4639C60.3312 69.6336 61.6612 71.4948 63.5499 72.2736Z" fill="#D9E7EC"/>
<path d="M46.6145 60.9756V65.6984C46.6145 67.5316 45.1284 69.0177 43.2953 69.0177C41.1632 69.0177 39.5868 67.0372 40.0607 64.9584C40.3527 63.6775 40.507 62.3443 40.507 60.9756C40.507 51.2691 32.7611 43.3719 23.1141 43.1277H23.1004C22.9538 43.1232 22.8041 43.1216 22.653 43.1216H6.17428C4.48989 43.1216 3.063 41.7915 3.04175 40.1072C3.03097 39.2488 3.37488 38.4702 3.93629 37.9088C4.48911 37.3561 5.25255 37.0139 6.09537 37.0139H22.653C35.8866 37.0141 46.6145 47.742 46.6145 60.9756Z" fill="#FFE177"/>
<path d="M12.2534 43.1213H6.17499C4.49077 43.1213 3.06327 41.7914 3.04187 40.1072C3.03124 39.2491 3.37468 38.4704 3.93655 37.9085C4.48937 37.3558 5.2528 37.0138 6.09562 37.0138H12.1742C11.3314 37.0138 10.568 37.3558 10.0151 37.9085C9.45483 38.4704 9.10968 39.2491 9.12046 40.1072C9.14171 41.7913 10.5692 43.1213 12.2534 43.1213Z" fill="#FFD15B"/>
<path d="M22.6532 78.8281C32.5132 78.8281 40.5063 70.835 40.5063 60.975C40.5063 51.115 32.5132 43.1218 22.6532 43.1218C12.7932 43.1218 4.80005 51.115 4.80005 60.975C4.80005 70.835 12.7932 78.8281 22.6532 78.8281Z" fill="#7A8C98"/>
<path d="M25.0986 78.6609C24.2985 78.7723 23.4832 78.8289 22.6525 78.8289C12.7934 78.8289 4.80017 70.8357 4.80017 60.975C4.80017 51.1158 12.7935 43.1226 22.6525 43.1226C23.4832 43.1226 24.2985 43.179 25.0986 43.2906C16.3953 44.48 9.69084 51.9451 9.69084 60.9751C9.69069 70.0065 16.3953 77.4715 25.0986 78.6609Z" fill="#596C76"/>
<path d="M22.6532 70.0031C27.6394 70.0031 31.6814 65.9611 31.6814 60.9749C31.6814 55.9888 27.6394 51.9467 22.6532 51.9467C17.6671 51.9467 13.625 55.9888 13.625 60.9749C13.625 65.9611 17.6671 70.0031 22.6532 70.0031Z" fill="#E8EDF2"/>
<path d="M24.6384 69.7851C24.0001 69.9271 23.3359 70.0033 22.6534 70.0033C17.668 70.0033 13.6249 65.9616 13.6249 60.9748C13.6249 55.9879 17.668 51.9463 22.6534 51.9463C23.3359 51.9463 24.0001 52.0227 24.6384 52.1646C20.6059 53.0685 17.5934 56.6688 17.5934 60.9748C17.5934 65.2808 20.606 68.8811 24.6384 69.7851Z" fill="#D9E7EC"/>
<path d="M50.6338 6.43445H19.8761C17.9238 6.43445 16.3409 8.01728 16.3409 9.96964C16.3409 11.922 17.9238 13.5048 19.8761 13.5048H50.6339C52.5863 13.5048 54.1691 11.922 54.1691 9.96964C54.169 8.01728 52.5863 6.43445 50.6338 6.43445Z" fill="#FFE177"/>
<path d="M24.1219 12.4691C24.7616 13.1088 25.6456 13.5043 26.6214 13.5043H19.8756C18.9 13.5043 18.0159 13.1088 17.3761 12.4691C16.7363 11.8294 16.3409 10.9453 16.3409 9.96956C16.3409 8.01675 17.9244 6.43488 19.8756 6.43488H26.6214C24.67 6.43488 23.0867 8.01675 23.0867 9.96956C23.0866 10.9453 23.482 11.8294 24.1219 12.4691Z" fill="#FFD15B"/>
<path d="M48.3434 41.7865C46.9624 41.7865 45.8429 42.906 45.8429 44.287V48.5588H50.8438V44.287C50.8438 42.906 49.7243 41.7865 48.3434 41.7865Z" fill="#FFE177"/>
<path d="M53.3443 41.7865C51.9634 41.7865 50.8439 42.906 50.8439 44.287V48.5588H55.8448V44.287C55.8448 42.906 54.7253 41.7865 53.3443 41.7865Z" fill="#FFE177"/>
<path d="M58.3453 41.7865C56.9644 41.7865 55.8448 42.906 55.8448 44.287V48.5588H60.8458V44.287C60.8459 42.906 59.7264 41.7865 58.3453 41.7865Z" fill="#FFE177"/>
<path d="M73.3103 19.0767C73.697 19.4635 74.2312 19.7027 74.8214 19.7027C76.0017 19.7027 76.9584 18.746 76.9584 17.5656C76.9584 8.52616 69.6043 1.17188 60.5647 1.17188C59.3843 1.17188 58.4275 2.1286 58.4276 3.30893C58.4276 4.48909 59.3845 5.44598 60.5647 5.44598C67.2474 5.44598 72.6842 10.8828 72.6843 17.5656C72.6843 18.1556 72.9235 18.6902 73.3103 19.0767Z" fill="#FE646F"/>
<path d="M58.0461 12.9512C58.4329 13.3379 58.9671 13.5771 59.5574 13.5771C60.8918 13.5771 62.1465 14.0968 63.0899 15.0404C64.0335 15.984 64.5532 17.2385 64.5532 18.573C64.5532 19.7532 65.51 20.7101 66.6902 20.7101C67.8705 20.7101 68.8272 19.7532 68.8272 18.573C68.8272 16.0969 67.863 13.769 66.1121 12.0182C64.3611 10.2674 62.0333 9.30304 59.5571 9.30304C58.3769 9.30304 57.42 10.2599 57.42 11.4401C57.4202 12.0301 57.6594 12.5644 58.0461 12.9512Z" fill="#FE646F"/>
<path d="M73.3851 41.052L68.0519 39.8734V33.5957C68.0519 32.5085 68.9364 31.6238 70.0238 31.6238H72.4925C73.8754 31.6238 75.0004 30.4995 75.0004 29.1175V25.68C75.0004 24.2971 73.8754 23.1721 72.4925 23.1721H70.0238C68.0045 23.1721 66.0458 23.7507 64.3592 24.8454C63.8162 25.1978 63.6618 25.9234 64.0142 26.4664C64.3665 27.0093 65.0926 27.1639 65.6351 26.8114C66.9409 25.9639 68.4584 25.5159 70.0238 25.5159H72.4925C72.583 25.5159 72.6566 25.5895 72.6566 25.68V29.1175C72.6566 29.207 72.583 29.28 72.4925 29.28H70.0238C67.6442 29.28 65.7081 31.2159 65.7081 33.5957V39.3554L61.944 38.5235V33.5957C61.944 32.5108 62.1551 31.458 62.5714 30.4666C62.822 29.8698 62.5414 29.183 61.9445 28.9325C61.3484 28.682 60.6609 28.9625 60.4104 29.5594C59.8729 30.8395 59.6002 32.1977 59.6002 33.5958V38.0057L50.7431 36.0482L48.0598 14.6767H50.6344C53.2294 14.6767 55.3407 12.5655 55.3407 9.97043C55.3407 8.71089 54.8505 7.52838 53.9625 6.64274C53.0747 5.75273 51.8928 5.26257 50.6344 5.26257H29.356C28.7087 5.26257 28.1841 5.78727 28.1841 6.43446C28.1841 7.08165 28.7087 7.60635 29.356 7.60635H50.6344C51.2656 7.60635 51.8583 7.85197 52.3053 8.3001C52.7513 8.74495 52.9969 9.33824 52.9969 9.97043C52.9969 11.2731 51.937 12.333 50.6344 12.333H19.8762C19.2441 12.333 18.6508 12.0873 18.2039 11.6392C17.7579 11.1942 17.5122 10.6015 17.5122 9.97043C17.5122 8.66683 18.5726 7.60635 19.8762 7.60635H23.8872C24.5346 7.60635 25.0591 7.08165 25.0591 6.43446C25.0591 5.78727 24.5346 5.26257 23.8872 5.26257H19.8762C17.2804 5.26257 15.1684 7.37447 15.1684 9.97043C15.1684 11.2287 15.6585 12.4106 16.5465 13.2966C17.2018 13.9536 18.0181 14.3919 18.9069 14.5767L14.2106 35.8422H6.09533C4.96704 35.8422 3.90594 36.2819 3.10749 37.0804C2.29498 37.893 1.85545 38.9732 1.86998 40.1221C1.8992 42.4223 3.83 44.2936 6.17424 44.2936H13.506C11.4543 45.4195 9.60224 46.9256 8.05879 48.7705C7.64347 49.2669 7.70925 50.006 8.20551 50.4213C8.70192 50.8363 9.44083 50.7708 9.85615 50.2744C13.036 46.4739 17.7001 44.2944 22.6528 44.2944C31.8509 44.2944 39.3342 51.7777 39.3342 60.9758C39.3342 70.173 31.8509 77.6556 22.6528 77.6556C13.4546 77.6556 5.97127 70.173 5.97127 60.9758C5.97127 58.7575 6.40002 56.6021 7.2455 54.5695C7.49409 53.9718 7.21112 53.2859 6.61362 53.0373C6.01564 52.7887 5.33001 53.0716 5.08142 53.6691C4.11656 55.9884 3.62734 58.4467 3.62734 60.9756C3.62734 71.4652 12.1621 79.9992 22.6527 79.9992C30.3712 79.9992 37.0306 75.3792 40.0111 68.7596C40.8583 69.6716 42.0363 70.1896 43.2946 70.1898H49.3334C50.5817 75.7953 55.5913 80 61.5676 80C67.7616 80 72.9174 75.4834 73.9229 69.5713C76.0623 68.5421 77.4551 66.365 77.4551 63.9455V46.1205C77.4554 43.6669 75.7818 41.5828 73.3851 41.052ZM75.1116 46.1205V47.387H62.0178V44.287C62.0178 42.2622 60.3704 40.6146 58.3454 40.6146C57.3801 40.6146 56.501 40.9896 55.8449 41.6009C55.1888 40.9896 54.3097 40.6146 53.3442 40.6146C52.3788 40.6146 51.4998 40.9896 50.8437 41.6009C50.1876 40.9896 49.3086 40.6146 48.3432 40.6146C46.3182 40.6146 44.6709 42.262 44.6709 44.287V47.387H43.7871C41.2215 43.4104 37.5644 40.2021 33.2434 38.186H49.5553L72.8786 43.3406C74.1935 43.6315 75.1116 44.7748 75.1116 46.1205ZM70.5163 49.7308H75.1116V53.401H72.4269C71.3733 53.401 70.5161 52.5438 70.5161 51.4902L70.5163 49.7308ZM52.0158 47.387V44.287C52.0158 43.5545 52.6117 42.9584 53.3444 42.9584C54.077 42.9584 54.6731 43.5544 54.6731 44.287V47.387H52.0158ZM47.0148 47.387V44.287C47.0148 43.5545 47.6107 42.9584 48.3434 42.9584C49.0761 42.9584 49.672 43.5544 49.672 44.287V47.387H47.0148ZM57.0169 44.287C57.0169 43.5545 57.6129 42.9584 58.3455 42.9584C59.0782 42.9584 59.6741 43.5544 59.6741 44.287V47.387H57.0169V44.287ZM29.5135 35.8421V14.6769H45.6976L48.355 35.8422H29.5135V35.8421ZM21.2852 14.6769H27.1698V35.8422H16.6107L21.2852 14.6769ZM41.6183 67.0388C41.2082 66.5246 41.0568 65.8613 41.2033 65.2191C41.2083 65.1974 41.211 65.1758 41.2147 65.1543C41.5174 63.8091 41.6782 62.4109 41.6782 60.9758C41.6782 50.4913 33.1534 41.9606 22.6713 41.9507C22.6652 41.9507 22.6592 41.9498 22.6532 41.9498H6.17424C5.1061 41.9498 4.22641 41.1165 4.21344 40.0924C4.20703 39.5807 4.40281 39.0996 4.76469 38.7376C5.12048 38.382 5.59298 38.186 6.09533 38.186H22.653C35.2194 38.186 45.4427 48.4094 45.4427 60.9758V65.6986C45.4427 66.8827 44.4793 67.8462 43.2952 67.8462C42.6387 67.8458 42.0274 67.5518 41.6183 67.0388ZM61.5679 77.6562C55.9478 77.6562 51.3756 73.084 51.3756 67.464C51.3756 61.8439 55.948 57.2718 61.5679 57.2718C67.1878 57.2718 71.76 61.8441 71.76 67.464C71.76 73.0839 67.1878 77.6562 61.5679 77.6562ZM74.0705 66.5966C73.623 60.0878 68.1884 54.9281 61.5679 54.9281C54.6555 54.9281 49.0318 60.5517 49.0318 67.464C49.0318 67.5921 49.0378 67.7188 49.0415 67.846H47.2389C47.5879 67.2077 47.7865 66.4758 47.7865 65.6985V60.9756C47.7865 56.9357 46.827 53.1162 45.126 49.7308H68.1725V51.4902C68.1725 53.8362 70.0811 55.7448 72.4271 55.7448H75.1118V63.9453C75.1116 64.9528 74.7235 65.8913 74.0705 66.5966Z" fill="black"/>
<path d="M61.5679 61.0916C58.0543 61.0916 55.1957 63.9501 55.1957 67.4637C55.1957 70.9773 58.0543 73.8359 61.5679 73.8359C65.0815 73.8359 67.9401 70.9773 67.9401 67.4637C67.9401 63.9501 65.0815 61.0916 61.5679 61.0916ZM61.5679 71.4923C59.3465 71.4923 57.5394 69.6852 57.5394 67.4639C57.5394 65.2427 59.3465 63.4355 61.5679 63.4355C63.7893 63.4355 65.5963 65.2427 65.5963 67.4639C65.5963 69.6852 63.7891 71.4923 61.5679 71.4923Z" fill="black"/>
<path d="M32.8532 60.9749C32.8532 55.3505 28.2775 50.7748 22.6531 50.7748C17.0287 50.7748 12.453 55.3507 12.453 60.9749C12.453 66.5992 17.0287 71.175 22.6531 71.175C28.2775 71.175 32.8532 66.5992 32.8532 60.9749ZM14.7968 60.9749C14.7968 56.6429 18.3212 53.1186 22.6531 53.1186C26.985 53.1186 30.5094 56.643 30.5094 60.9749C30.5094 65.3069 26.985 68.8313 22.6531 68.8313C18.3212 68.8313 14.7968 65.3069 14.7968 60.9749Z" fill="black"/>
<path d="M60.5645 6.61788C66.6012 6.61788 71.5122 11.529 71.5123 17.5653C71.512 18.4494 71.8564 19.2805 72.4815 19.9055H72.4817C73.1065 20.5305 73.9373 20.8746 74.8213 20.8746C76.6458 20.8746 78.1302 19.3902 78.1302 17.5656C78.1302 7.88008 70.2503 0 60.5647 0C60.5647 0 60.5647 0 60.5645 0C59.6808 0 58.8497 0.344222 58.2247 0.969072C57.5998 1.59408 57.2556 2.42502 57.2556 3.30894C57.2556 5.13349 58.74 6.61788 60.5645 6.61788ZM59.8822 2.62643C60.0644 2.44409 60.3067 2.34377 60.5647 2.34377C68.9581 2.34377 75.7864 9.17243 75.7864 17.5656C75.7864 18.0978 75.3534 18.5308 74.8213 18.5308C74.5636 18.5308 74.3211 18.4303 74.1389 18.2481C74.1387 18.2481 74.1387 18.248 74.1386 18.248C73.9564 18.0658 73.8561 17.8236 73.8561 17.5656C73.8559 10.2367 67.8934 4.2741 60.5645 4.2741C60.0324 4.2741 59.5994 3.84113 59.5994 3.30894C59.5994 3.05112 59.6999 2.80878 59.8822 2.62643Z" fill="black"/>
<path d="M59.5572 14.749C60.5786 14.749 61.5389 15.1466 62.2611 15.8688C62.9833 16.5912 63.3811 17.5515 63.3811 18.5729C63.3811 20.3974 64.8655 21.8818 66.6902 21.8818C68.5147 21.8818 69.9991 20.3974 69.9991 18.5727C69.9991 15.7835 68.913 13.1613 66.9408 11.1893C64.9686 9.21711 62.3464 8.13086 59.5572 8.13086C57.7327 8.13102 56.2483 9.61539 56.2483 11.4399C56.2483 12.3237 56.5925 13.1548 57.2174 13.7796C57.8424 14.4046 58.6731 14.749 59.5572 14.749ZM59.557 10.4748C61.7202 10.4748 63.7538 11.3171 65.2833 12.8466C66.8128 14.3762 67.6552 16.4098 67.6552 18.5729C67.6552 19.1051 67.2222 19.5382 66.69 19.5382C66.1578 19.5382 65.7247 19.1052 65.7247 18.573C65.7247 16.9255 65.0833 15.3766 63.9181 14.2116C62.7531 13.0466 61.2044 12.4052 59.5572 12.4052C59.2992 12.4052 59.0567 12.3048 58.8745 12.1224C58.6922 11.9401 58.5917 11.6977 58.5917 11.4399C58.592 10.9079 59.025 10.4748 59.557 10.4748Z" fill="black"/>
</g>
<defs>
<clipPath id="clip0_608_506">
<rect width="80" height="80" fill="white"/>
</clipPath>
</defs>
</svg>
